<?xml version="1.0" encoding="UTF-8"?>
<!-- Generator: visioncortex VTracer 0.6.1 -->
<svg version="1.1" xmlns="http://www.w3.org/2000/svg" width="1280" height="435">
<path d="M0 0 C0.77193192 -0.00335861 1.54386383 -0.00671722 2.33918762 -0.01017761 C4.86774344 -0.01960414 7.39623244 -0.0216266 9.92480469 -0.02270508 C11.70066351 -0.02592373 13.47652208 -0.02928825 15.25238037 -0.03279114 C18.96757623 -0.03876191 22.6827489 -0.04063318 26.39794922 -0.04003906 C31.12947317 -0.03993763 35.86084643 -0.05357961 40.59233475 -0.07081127 C44.25920274 -0.08199866 47.92603509 -0.0839562 51.5929184 -0.08342934 C53.33580799 -0.08459971 55.07869879 -0.08896772 56.82157135 -0.0967617 C69.29690041 -0.1473241 81.01528069 0.69809475 93.03417969 4.33276367 C93.74630615 4.54634521 94.45843262 4.75992676 95.19213867 4.97998047 C111.82144818 10.12771251 127.97543812 17.665621 142.75292969 26.85229492 C144.60999219 27.99910031 146.4884667 29.04819781 148.40917969 30.08276367 C152.2341332 32.22291623 155.54603617 34.98329067 158.92871094 37.75463867 C160.72170009 39.34092854 160.72170009 39.34092854 162.84667969 39.14526367 C163.09417969 39.76401367 163.34167969 40.38276367 163.59667969 41.02026367 C164.64993851 43.25299782 164.64993851 43.25299782 166.65917969 44.04760742 C169.21216238 45.32865767 170.99121328 46.90527734 173.09667969 48.83276367 C176.40952117 51.85960159 176.40952117 51.85960159 179.82324219 54.77026367 C184.25841439 58.42061116 188.00965564 62.46813599 191.72167969 66.83276367 C192.43686768 67.67133911 192.43686768 67.67133911 193.16650391 68.52685547 C195.44794111 71.26171295 197.45288107 73.85301522 198.84667969 77.14526367 C199.50667969 77.14526367 200.16667969 77.14526367 200.84667969 77.14526367 C209.49497468 87.42381198 216.20103281 99.52333098 222.84667969 111.14526367 C223.32363281 111.97413086 223.80058594 112.80299805 224.29199219 113.65698242 C226.78302671 118.04985468 228.88820454 122.49029386 230.84667969 127.14526367 C231.39583923 128.41363127 231.94532556 129.68185743 232.49511719 130.94995117 C238.02457512 143.89221469 242.56207382 156.926179 244.48730469 170.92260742 C244.73834587 173.17752666 244.73834587 173.17752666 245.84667969 175.14526367 C246.15788253 177.7040426 246.35632635 180.26377979 246.56542969 182.83276367 C246.71804016 185.16794822 246.71804016 185.16794822 247.84667969 187.14526367 C247.89218349 189.33229034 247.88509308 191.52060098 247.84667969 193.70776367 C247.8090805 195.85326757 247.79997873 197.99993859 247.84667969 200.14526367 C248.17667969 200.47526367 248.50667969 200.80526367 248.84667969 201.14526367 C248.94642357 203.04811354 248.97748599 204.95464621 248.97949219 206.86010742 C248.98078125 208.0209082 248.98207031 209.18170898 248.98339844 210.37768555 C248.97953125 211.60036133 248.97566406 212.82303711 248.97167969 214.08276367 C248.97554688 215.30157227 248.97941406 216.52038086 248.98339844 217.77612305 C248.98146484 219.51925781 248.98146484 219.51925781 248.97949219 221.29760742 C248.97836426 222.37002686 248.97723633 223.44244629 248.97607422 224.54736328 C248.84667969 227.14526367 248.84667969 227.14526367 247.84667969 229.14526367 C247.85253479 231.27066406 247.90134047 233.39601945 247.97167969 235.52026367 C248.02020999 241.46522545 247.26823922 246.47854797 245.64355469 252.17260742 C244.52383148 256.3496141 243.90829551 260.57065142 243.27636719 264.84448242 C242.84667969 267.14526367 242.84667969 267.14526367 241.84667969 268.14526367 C241.72292969 269.13526367 241.59917969 270.12526367 241.47167969 271.14526367 C240.86203128 275.70838963 239.42243372 279.8333677 237.84667969 284.14526367 C237.50765625 285.09143555 237.16863281 286.03760742 236.81933594 287.01245117 C231.93081514 300.21310328 225.81706709 312.92068274 218.84667969 325.14526367 C218.18667969 325.14526367 217.52667969 325.14526367 216.84667969 325.14526367 C216.73453125 325.70729492 216.62238281 326.26932617 216.50683594 326.84838867 C215.7561063 329.46039475 214.63500593 331.53997689 213.28417969 333.89526367 C212.82914062 334.69448242 212.37410156 335.49370117 211.90527344 336.31713867 C211.5559375 336.92041992 211.20660156 337.52370117 210.84667969 338.14526367 C210.18667969 338.14526367 209.52667969 338.14526367 208.84667969 338.14526367 C208.84667969 338.80526367 208.84667969 339.46526367 208.84667969 340.14526367 C208.18667969 340.14526367 207.52667969 340.14526367 206.84667969 340.14526367 C206.58371094 340.8800293 206.32074219 341.61479492 206.04980469 342.37182617 C204.8399193 345.16084767 203.49171637 347.15573592 201.59667969 349.52026367 C200.98050781 350.29241211 200.36433594 351.06456055 199.72949219 351.86010742 C197.53392673 354.52484973 195.2977452 357.14847032 193.01074219 359.73510742 C191.74572268 361.1600855 191.74572268 361.1600855 190.84667969 363.14526367 C190.18667969 363.14526367 189.52667969 363.14526367 188.84667969 363.14526367 C188.47542969 364.01151367 188.47542969 364.01151367 188.09667969 364.89526367 C186.6636798 367.47466346 185.06243292 369.20647959 182.84667969 371.14526367 C182.18667969 371.14526367 181.52667969 371.14526367 180.84667969 371.14526367 C180.84667969 371.80526367 180.84667969 372.46526367 180.84667969 373.14526367 C179.47125403 374.07367599 178.09019008 374.994503 176.68652344 375.87963867 C174.60936018 377.3085153 172.7859438 378.89989527 170.90917969 380.58276367 C161.25791352 389.14526367 161.25791352 389.14526367 155.84667969 389.14526367 C155.84667969 390.46526367 155.84667969 391.78526367 155.84667969 393.14526367 C154.41097703 393.96093541 152.97304535 394.7726846 151.53417969 395.58276367 C150.73367188 396.03522461 149.93316406 396.48768555 149.10839844 396.95385742 C146.84667969 398.14526367 146.84667969 398.14526367 143.84667969 399.14526367 C142.83760259 400.13610343 141.8380077 401.13666624 140.84667969 402.14526367 C138.34127243 403.50461063 135.8488069 404.78465489 133.28417969 406.02026367 C131.82963297 406.73095637 130.37520554 407.44189327 128.92089844 408.15307617 C128.21755371 408.495 127.51420898 408.83692383 126.78955078 409.18920898 C124.36848064 410.3805775 121.98538384 411.64051206 119.59667969 412.89526367 C114.21341988 415.59141733 108.57703992 417.34183967 102.84667969 419.14526367 C101.36692745 419.66443098 99.88771201 420.18513228 98.40917969 420.70776367 C93.52099281 422.35516367 88.50971973 423.41224811 83.47167969 424.49682617 C80.93651369 424.88313055 80.93651369 424.88313055 79.84667969 426.14526367 C78.52519142 426.52283175 77.18832047 426.84712127 75.84667969 427.14526367 C75.12480469 427.31026367 74.40292969 427.47526367 73.65917969 427.64526367 C65.30000511 429.13133915 57.10035952 429.29247105 48.63183594 429.27807617 C46.75545692 429.27951126 46.75545692 429.27951126 44.84117126 429.28097534 C41.53575871 429.28182574 38.23039401 429.27783261 34.92498779 429.2722168 C32.91229747 429.27026669 30.89965081 429.27220943 28.88696289 429.27563477 C24.98940036 429.28184526 21.09190124 429.28105482 17.19433594 429.27807617 C16.00550308 429.2801004 14.81667023 429.28212463 13.59181213 429.28421021 C-5.0663568 429.23222718 -5.0663568 429.23222718 -7.15332031 427.14526367 C-8.49945202 426.83696593 -9.85635517 426.57560636 -11.21582031 426.33276367 C-26.89560081 423.29075205 -41.59581636 418.75807929 -56.15332031 412.14526367 C-57.3181897 411.61690918 -57.3181897 411.61690918 -58.5065918 411.07788086 C-60.89425516 409.98668741 -63.27432088 408.88020468 -65.65332031 407.77026367 C-66.44351563 407.40932617 -67.23371094 407.04838867 -68.04785156 406.67651367 C-73.802395 403.98289759 -78.94418831 400.76954183 -84.15332031 397.14526367 C-85.75187183 396.06913828 -87.35083936 394.99363063 -88.95019531 393.91870117 C-99.11263531 386.98607381 -108.46402406 379.84951139 -117.15332031 371.14526367 C-117.83507324 370.46512207 -118.51682617 369.78498047 -119.21923828 369.08422852 C-125.09116546 363.22008044 -125.09116546 363.22008044 -127.95117188 360.31176758 C-128.59924805 359.6548291 -129.24732422 358.99789063 -129.91503906 358.32104492 C-130.78068481 357.43799683 -130.78068481 357.43799683 -131.66381836 356.53710938 C-133.12172347 355.04276566 -133.12172347 355.04276566 -135.15332031 354.14526367 C-135.64832031 352.66026367 -135.64832031 352.66026367 -136.15332031 351.14526367 C-136.81332031 350.81526367 -137.47332031 350.48526367 -138.15332031 350.14526367 C-138.15332031 349.48526367 -138.15332031 348.82526367 -138.15332031 348.14526367 C-138.81332031 347.81526367 -139.47332031 347.48526367 -140.15332031 347.14526367 C-143.15332031 343.56834059 -143.15332031 343.56834059 -143.15332031 341.14526367 C-143.81332031 341.14526367 -144.47332031 341.14526367 -145.15332031 341.14526367 C-145.58644531 340.21713867 -146.01957031 339.28901367 -146.46582031 338.33276367 C-147.88859502 335.24250619 -147.88859502 335.24250619 -149.71582031 333.64526367 C-151.80647097 331.46371516 -152.32725741 329.00471218 -153.15332031 326.14526367 C-153.81332031 326.14526367 -154.47332031 326.14526367 -155.15332031 326.14526367 C-158.15332031 320.39526367 -158.15332031 320.39526367 -158.15332031 318.14526367 C-158.81332031 318.14526367 -159.47332031 318.14526367 -160.15332031 318.14526367 C-160.48332031 316.16526367 -160.81332031 314.18526367 -161.15332031 312.14526367 C-161.81332031 312.14526367 -162.47332031 312.14526367 -163.15332031 312.14526367 C-163.56324219 311.09725586 -163.97316406 310.04924805 -164.39550781 308.96948242 C-164.9395947 307.59050358 -165.4838757 306.21160132 -166.02832031 304.83276367 C-166.29773438 304.1424707 -166.56714844 303.45217773 -166.84472656 302.7409668 C-168.07505699 299.63513268 -169.29320495 296.93543672 -171.15332031 294.14526367 C-171.68068979 292.64046596 -172.15504515 291.11659376 -172.59082031 289.58276367 C-172.84734375 288.69717773 -173.10386719 287.8115918 -173.36816406 286.89916992 C-173.62726563 285.99038086 -173.88636719 285.0815918 -174.15332031 284.14526367 C-174.64944972 282.43580224 -175.14935005 280.72742996 -175.65332031 279.02026367 C-175.89953125 278.18624023 -176.14574219 277.3522168 -176.39941406 276.49291992 C-177.06780346 274.41156228 -177.85373361 272.46352318 -178.71582031 270.45776367 C-180.75618377 265.28741857 -181.10799459 259.72426028 -181.72363281 254.24291992 C-181.81714764 251.28035457 -181.81714764 251.28035457 -183.15332031 250.14526367 C-183.47683333 247.30553832 -183.66636322 244.4645263 -183.87207031 241.61401367 C-183.88717296 239.20390317 -183.88717296 239.20390317 -185.15332031 238.14526367 C-185.25154147 236.68250963 -185.28130396 235.21507078 -185.28271484 233.74902344 C-185.285867 232.81457901 -185.28901917 231.88013458 -185.29226685 230.91737366 C-185.29024261 229.90074142 -185.28821838 228.88410919 -185.28613281 227.83666992 C-185.28708954 226.79961411 -185.28804626 225.76255829 -185.28903198 224.69407654 C-185.289714 222.49575744 -185.28785822 220.29743635 -185.28369141 218.09912109 C-185.27834885 214.72578418 -185.28363291 211.35258075 -185.29003906 207.97924805 C-185.28937818 205.84838838 -185.2880968 203.71752879 -185.28613281 201.58666992 C-185.28815704 200.57206192 -185.29018127 199.55745392 -185.29226685 198.51210022 C-185.28911469 197.57450363 -185.28596252 196.63690704 -185.28271484 195.67089844 C-185.28191925 194.84340591 -185.28112366 194.01591339 -185.28030396 193.16334534 C-185.15332031 191.14526367 -185.15332031 191.14526367 -184.15332031 189.14526367 C-183.84076384 186.29318589 -183.64294549 183.44029514 -183.43457031 180.57885742 C-183.15332031 178.14526367 -183.15332031 178.14526367 -182.15332031 177.14526367 C-181.87338918 175.14923297 -181.63089706 173.14793909 -181.40332031 171.14526367 C-180.31532449 163.13663274 -178.16730387 155.63366501 -175.72314453 147.9440918 C-175.26909178 146.51073247 -174.83475053 145.07113308 -174.40722656 143.62963867 C-170.73721326 131.68499912 -164.87778049 120.21674709 -159.15332031 109.14526367 C-158.49332031 109.14526367 -157.83332031 109.14526367 -157.15332031 109.14526367 C-156.90582031 108.09338867 -156.65832031 107.04151367 -156.40332031 105.95776367 C-155.36529373 102.29890403 -153.65728082 100.02861214 -151.15332031 97.14526367 C-150.15207278 95.47934616 -149.1522556 93.8125687 -148.15332031 92.14526367 C-146.86218061 90.27616 -145.54876938 88.42228455 -144.21582031 86.58276367 C-143.21228516 85.18864258 -143.21228516 85.18864258 -142.18847656 83.76635742 C-140.15332031 81.14526367 -140.15332031 81.14526367 -138.08691406 79.11791992 C-136.07812041 77.24021595 -136.07812041 77.24021595 -134.89306641 74.89916992 C-132.77675465 71.54918443 -130.17960405 68.88474259 -127.38378906 66.11010742 C-126.82516678 65.54957169 -126.26654449 64.98903595 -125.69099426 64.41151428 C-124.51251764 63.23168173 -123.33153179 62.05435078 -122.14819336 60.87939453 C-120.35003856 59.09192713 -118.5627755 57.29407128 -116.77636719 55.49487305 C-115.62531497 54.34514292 -114.47364224 53.19603362 -113.32128906 52.04760742 C-112.79294968 51.51521957 -112.26461029 50.98283173 -111.72026062 50.43431091 C-108.43730861 47.19190876 -105.06528161 44.63269933 -101.15332031 42.14526367 C-100.24582031 41.40276367 -99.33832031 40.66026367 -98.40332031 39.89526367 C-96.15332031 38.14526367 -96.15332031 38.14526367 -94.15332031 38.14526367 C-94.15332031 37.48526367 -94.15332031 36.82526367 -94.15332031 36.14526367 C-92.52612544 35.08224221 -90.84908817 34.095079 -89.15332031 33.14526367 C-88.25097656 32.57549805 -87.34863281 32.00573242 -86.41894531 31.41870117 C-77.57340771 25.85013734 -68.4528712 20.91153554 -59.15332031 16.14526367 C-58.44965332 15.78247314 -57.74598633 15.41968262 -57.02099609 15.04589844 C-53.61788373 13.31266329 -50.31630664 11.70279218 -46.65332031 10.58276367 C-43.74003496 9.661725 -40.87879443 8.68333283 -38.02832031 7.58276367 C-34.45011331 6.22599756 -30.84945574 5.14760548 -27.15332031 4.14526367 C-26.29480469 3.89647461 -25.43628906 3.64768555 -24.55175781 3.39135742 C-23.14796875 2.99110352 -23.14796875 2.99110352 -21.71582031 2.58276367 C-20.41837891 2.20958008 -20.41837891 2.20958008 -19.09472656 1.82885742 C-12.75888294 0.35638381 -6.48516417 -0.00414061 0 0 Z M91.84667969 88.14526367 C90.85667969 88.47526367 89.86667969 88.80526367 88.84667969 89.14526367 C88.90855469 89.90838867 88.97042969 90.67151367 89.03417969 91.45776367 C88.80630792 94.72392571 88.10349599 94.95298668 85.84667969 97.14526367 C84.34123778 99.7508078 83.18025665 102.51606102 81.97167969 105.27026367 C81.61871826 106.07141602 81.26575684 106.87256836 80.90209961 107.69799805 C77.78119548 114.96939765 75.47091268 122.33609374 73.43212891 129.97143555 C72.82149494 132.238777 72.18310064 134.49685024 71.53808594 136.75463867 C69.26644466 144.74013179 67.16832705 152.71712683 65.42480469 160.83666992 C64.84667969 163.14526367 64.84667969 163.14526367 63.84667969 164.14526367 C63.52018107 166.13987343 63.23606844 168.14147525 62.97167969 170.14526367 C62.2530279 175.11593852 61.1515659 179.53367262 59.43652344 184.23510742 C58.61479633 186.8961972 58.78894054 189.37378458 58.84667969 192.14526367 C58.12533653 196.73094517 56.9573824 201.03052425 55.22167969 205.33276367 C53.86956079 208.7198215 53.67202301 211.47747345 53.84667969 215.14526367 C53.51667969 215.80526367 53.18667969 216.46526367 52.84667969 217.14526367 C35.02667969 217.47526367 17.20667969 217.80526367 -1.15332031 218.14526367 C-1.81332031 214.84526367 -2.47332031 211.54526367 -3.15332031 208.14526367 C-3.78846857 205.80315446 -4.45199192 203.46841398 -5.15332031 201.14526367 C-5.48332031 199.94901367 -5.81332031 198.75276367 -6.15332031 197.52026367 C-7.03975498 194.28113648 -7.03975498 194.28113648 -8.15332031 191.83276367 C-9.37438603 188.55114955 -9.92214446 185.28886933 -10.49316406 181.84057617 C-11.33079089 178.42067967 -12.76241582 175.37798933 -14.15332031 172.14526367 C-14.88502522 169.69378518 -15.59228408 167.23491236 -16.27832031 164.77026367 C-18.15067623 158.4294091 -20.67363261 152.66676437 -23.77832031 146.83276367 C-24.16262207 146.10976074 -24.54692383 145.38675781 -24.94287109 144.6418457 C-26.72640725 141.39461726 -28.30912871 138.58944728 -31.15332031 136.14526367 C-31.81332031 136.14526367 -32.47332031 136.14526367 -33.15332031 136.14526367 C-33.38019531 135.54713867 -33.60707031 134.94901367 -33.84082031 134.33276367 C-35.65453327 131.30990875 -36.85426646 130.49181627 -40.15332031 129.14526367 C-45.65718905 128.36264246 -50.46619554 128.14418771 -55.09082031 131.52026367 C-56.11303006 132.39365529 -57.13406557 133.26842534 -58.15332031 134.14526367 C-58.89582031 134.47526367 -59.63832031 134.80526367 -60.40332031 135.14526367 C-62.93930102 136.5943955 -63.76796999 138.61549352 -65.15332031 141.14526367 C-65.62769531 141.76401367 -66.10207031 142.38276367 -66.59082031 143.02026367 C-71.41318665 149.57868189 -74.27709251 157.58738369 -77.15332031 165.14526367 C-77.42015625 165.83491211 -77.68699219 166.52456055 -77.96191406 167.23510742 C-79.53274682 171.34531749 -80.96707724 175.49137775 -82.33691406 179.67260742 C-82.92043358 181.43991773 -83.5184318 183.20247405 -84.12597656 184.96166992 C-86.22854488 191.09349465 -87.98686024 197.21677815 -89.49707031 203.52026367 C-90.23021296 206.45283427 -91.19786122 209.2788864 -92.15332031 212.14526367 C-92.64832031 215.11526367 -92.64832031 215.11526367 -93.15332031 218.14526367 C-108.66332031 218.14526367 -124.17332031 218.14526367 -140.15332031 218.14526367 C-141.7180995 222.83960125 -140.29856462 227.10819343 -139.40332031 231.89526367 C-139.23316406 232.87237305 -139.06300781 233.84948242 -138.88769531 234.85620117 C-137.87689637 240.37100126 -136.50138392 245.06538092 -134.15332031 250.14526367 C-133.63378906 252.30541992 -133.63378906 252.30541992 -133.34082031 254.20776367 C-132.01146315 260.86610912 -128.93734174 266.99065026 -126.15332031 273.14526367 C-125.49332031 273.14526367 -124.83332031 273.14526367 -124.15332031 273.14526367 C-123.76273438 274.0656543 -123.76273438 274.0656543 -123.36425781 275.00463867 C-121.27208899 278.70305323 -118.1243962 279.93775784 -114.15332031 281.14526367 C-108.48761351 281.73936592 -103.17517607 282.13446353 -98.15332031 279.14526367 C-98.15332031 278.48526367 -98.15332031 277.82526367 -98.15332031 277.14526367 C-97.56550781 276.94416992 -96.97769531 276.74307617 -96.37207031 276.53588867 C-88.24047423 271.43932493 -85.32059675 255.70138343 -83.15332031 247.14526367 C-82.80914062 245.95803711 -82.46496094 244.77081055 -82.11035156 243.54760742 C-81.3316634 240.77929156 -80.71730094 237.96516683 -80.15332031 235.14526367 C-47.48332031 235.64026367 -47.48332031 235.64026367 -14.15332031 236.14526367 C-12.83332031 241.75526367 -11.51332031 247.36526367 -10.15332031 253.14526367 C-9.16332031 255.45526367 -8.17332031 257.76526367 -7.15332031 260.14526367 C-6.52832031 262.48120117 -6.52832031 262.48120117 -6.15332031 264.52026367 C-5.18237503 269.21711279 -3.7443581 273.62589341 -2.15332031 278.14526367 C-1.61191406 279.7752832 -1.61191406 279.7752832 -1.05957031 281.43823242 C3.95487833 296.30550255 3.95487833 296.30550255 13.84667969 308.14526367 C14.83667969 308.47526367 15.82667969 308.80526367 16.84667969 309.14526367 C16.84667969 309.80526367 16.84667969 310.46526367 16.84667969 311.14526367 C22.44947251 314.88045889 28.25795487 314.85185394 34.84667969 314.14526367 C37.13713235 313.22130904 37.13713235 313.22130904 38.84667969 312.14526367 C38.84667969 311.48526367 38.84667969 310.82526367 38.84667969 310.14526367 C39.50667969 310.14526367 40.16667969 310.14526367 40.84667969 310.14526367 C40.84667969 309.48526367 40.84667969 308.82526367 40.84667969 308.14526367 C41.50667969 308.14526367 42.16667969 308.14526367 42.84667969 308.14526367 C50.42086312 296.37887396 50.42086312 296.37887396 52.84667969 283.14526367 C53.50667969 283.14526367 54.16667969 283.14526367 54.84667969 283.14526367 C54.98243408 282.55624268 55.11818848 281.96722168 55.25805664 281.36035156 C55.88730645 278.6417687 56.52320453 275.92478076 57.15917969 273.20776367 C57.37251953 272.28157227 57.58585938 271.35538086 57.80566406 270.40112305 C59.02241769 265.22538002 60.43362601 260.21259158 62.1706543 255.18847656 C63.13393866 252.2770548 63.81294799 249.32601155 64.47167969 246.33276367 C65.22911762 242.92429298 65.99970873 239.53314749 66.84667969 236.14526367 C90.27667969 236.14526367 113.70667969 236.14526367 137.84667969 236.14526367 C139.49667969 241.42526367 141.14667969 246.70526367 142.84667969 252.14526367 C146.56015805 263.28569875 150.23083433 273.92747801 160.65917969 280.24291992 C165.1555598 282.09767672 170.08649353 281.63791735 174.84667969 281.14526367 C181.58227617 278.2763985 185.29569471 271.85039445 188.04199219 265.28979492 C188.7148926 263.44305712 189.36575538 261.58803661 189.98730469 259.72338867 C190.84667969 257.14526367 190.84667969 257.14526367 191.83105469 254.86010742 C193.22468613 251.13482338 194.01642991 247.34193074 194.84667969 243.45776367 C195.02110596 242.65773926 195.19553223 241.85771484 195.37524414 241.03344727 C196.45332491 236.06288508 197.49427227 231.08585564 198.45214844 226.09057617 C198.84667969 224.14526367 198.84667969 224.14526367 199.52246094 222.01245117 C199.68294922 221.08819336 199.68294922 221.08819336 199.84667969 220.14526367 C197.42662831 217.7252123 196.80356747 217.88197129 193.48876953 217.82641602 C192.58798676 217.80654633 191.68720398 217.78667664 190.75912476 217.76620483 C189.29812851 217.74887802 189.29812851 217.74887802 187.80761719 217.73120117 C186.81162506 217.71183502 185.81563293 217.69246887 184.78945923 217.67251587 C181.60028719 217.61261402 178.41107925 217.56629229 175.22167969 217.52026367 C173.06280956 217.48209366 170.90395481 217.44304251 168.74511719 217.40307617 C163.44577435 217.30690397 158.14633925 217.22188779 152.84667969 217.14526367 C150.64940908 209.74821319 150.64940908 209.74821319 150.24902344 205.99682617 C150.13010742 204.95461914 150.13010742 204.95461914 150.00878906 203.89135742 C149.93466797 203.19139648 149.86054688 202.49143555 149.78417969 201.77026367 C149.67057978 197.07763781 149.67057978 197.07763781 147.84667969 193.14526367 C147.49057233 191.3826819 147.18797431 189.60921533 146.90917969 187.83276367 C146.65007812 186.22014648 146.65007812 186.22014648 146.38574219 184.57495117 C146.02636719 182.28849284 145.66699219 180.00203451 145.30761719 177.71557617 C145.04851562 176.10295898 145.04851562 176.10295898 144.78417969 174.45776367 C144.62820313 173.46389648 144.47222656 172.4700293 144.31152344 171.44604492 C144.07663053 169.19085791 144.07663053 169.19085791 142.84667969 168.14526367 C142.49059564 166.71793517 142.18792825 165.27718803 141.90917969 163.83276367 C141.73386719 162.93041992 141.55855469 162.02807617 141.37792969 161.09838867 C140.83842551 158.09938016 140.3725059 155.09438404 139.90917969 152.08276367 C139.18430299 147.61934969 138.10012122 143.54771204 136.56933594 139.30151367 C135.5883012 136.37431812 134.97228256 133.40902678 134.37402344 130.38354492 C133.70997655 127.56503479 132.78816294 124.88412403 131.84667969 122.14526367 C131.63438721 121.50935303 131.42209473 120.87344238 131.20336914 120.21826172 C127.03621313 107.73124899 127.03621313 107.73124899 120.84667969 96.14526367 C120.18667969 96.14526367 119.52667969 96.14526367 118.84667969 96.14526367 C118.66105469 95.44401367 118.47542969 94.74276367 118.28417969 94.02026367 C116.26579064 89.98348558 113.77555727 87.39033658 109.84667969 85.14526367 C103.52367687 83.71711732 97.70572388 85.87458992 91.84667969 88.14526367 Z M215.84667969 323.14526367 C216.84667969 325.14526367 216.84667969 325.14526367 216.84667969 325.14526367 Z M205.84667969 338.14526367 C206.84667969 340.14526367 206.84667969 340.14526367 206.84667969 340.14526367 Z M186.84667969 362.14526367 C186.51667969 362.80526367 186.18667969 363.46526367 185.84667969 364.14526367 C186.50667969 364.14526367 187.16667969 364.14526367 187.84667969 364.14526367 C187.51667969 363.48526367 187.18667969 362.82526367 186.84667969 362.14526367 Z M180.84667969 368.14526367 C181.84667969 370.14526367 181.84667969 370.14526367 181.84667969 370.14526367 Z " fill="#FCFCFC" transform="translate(202.1533203125,-0.145263671875)"/>
<path d="M0 0 C0.763125 0.0825 1.52625 0.165 2.3125 0.25 C3.25261264 2.10284336 4.18945592 3.95734568 5.125 5.8125 C5.90810547 7.36130859 5.90810547 7.36130859 6.70703125 8.94140625 C8.04793264 11.70477237 9.28113292 14.48642529 10.4753418 17.31518555 C12.16107535 21.21120142 13.99620598 25.0386034 15.8125 28.875 C16.20308594 29.70773438 16.59367188 30.54046875 16.99609375 31.3984375 C18.56664063 34.7193245 20.12576935 37.94189443 22.03125 41.0859375 C23.29547693 43.22124762 23.74362247 44.86071439 24.3125 47.25 C26.74571727 52.55815705 29.39864365 57.78684912 32.375 62.8125 C35.84014426 68.96033659 38.63309291 75.40248388 41.125 82 C43.40468293 87.83000881 46.41603876 93.24916926 49.41015625 98.734375 C53.94512604 107.11522267 53.94512604 107.11522267 55.19140625 110.96484375 C56.82867738 115.7625616 59.05495984 120.24821014 61.25 124.8125 C61.69279297 125.74513672 62.13558594 126.67777344 62.59179688 127.63867188 C64.66575319 131.97512598 66.82997103 136.1322723 69.3125 140.25 C69.9911084 141.92458878 70.63779396 143.61251156 71.25 145.3125 C72.71299681 149.05933535 73.93523447 151.85323091 77.3125 154.25 C78.3025 154.25 79.2925 154.25 80.3125 154.25 C80.43995605 153.67290283 80.56741211 153.09580566 80.69873047 152.5012207 C81.31262456 150.24954312 82.12131373 148.33090995 83.1328125 146.23046875 C83.49955078 145.46331543 83.86628906 144.69616211 84.24414062 143.90576172 C84.63794922 143.09123535 85.03175781 142.27670898 85.4375 141.4375 C86.26352574 139.7150858 87.08904127 137.99242683 87.9140625 136.26953125 C88.32301758 135.41697754 88.73197266 134.56442383 89.15332031 133.68603516 C90.16885473 131.55187289 91.1658515 129.41119438 92.1484375 127.26171875 C95.58372639 119.75408036 99.27611197 112.45864716 103.17431641 105.18334961 C106.42238779 99.10183927 109.32168151 93.02720593 111.640625 86.52734375 C113.29394166 82.09921917 115.4268027 78.01858463 117.6875 73.875 C118.48900497 72.38189869 119.28979011 70.88841073 120.08984375 69.39453125 C120.47253418 68.68248535 120.85522461 67.97043945 121.24951172 67.23681641 C122.61077867 64.69249155 123.94238181 62.13479966 125.25 59.5625 C125.60964844 58.85738281 125.96929688 58.15226562 126.33984375 57.42578125 C127.38385029 55.19851358 127.38385029 55.19851358 128.171875 52.55859375 C129.67153394 48.20855565 131.63207132 44.14267798 133.625 40 C134.23601562 38.71996094 134.23601562 38.71996094 134.859375 37.4140625 C137.16249586 32.60179081 139.49114646 27.80583608 141.94140625 23.06640625 C143.16418836 20.55465154 144.28970343 18.02661825 145.40234375 15.46484375 C145.78777344 14.59923828 146.17320312 13.73363281 146.5703125 12.84179688 C147.34559343 11.09741479 148.1027417 9.34483927 148.83984375 7.58398438 C149.86440627 5.30616234 150.8381641 3.2666336 152.3125 1.25 C155.47265625 0.06640625 155.47265625 0.06640625 158.3125 0.25 C160.57954961 2.51704961 160.7469097 3.43467253 161.34765625 6.50390625 C161.51716797 7.35919922 161.68667969 8.21449219 161.86132812 9.09570312 C162.03083984 9.99224609 162.20035156 10.88878906 162.375 11.8125 C162.54837891 12.68197266 162.72175781 13.55144531 162.90039062 14.44726562 C163.73553342 18.73817169 164.42911221 22.98981493 164.87109375 27.33984375 C164.87519657 31.02047138 164.87519657 31.02047138 166.3125 32.25 C167.67681604 38.15439294 168.44983332 44.1862499 169.25 50.1875 C170.00045262 55.62384968 171.16928403 60.78356153 172.5859375 66.078125 C173.73679405 71.10229447 174.29186864 76.17663905 174.8828125 81.29296875 C174.99424457 84.13110309 174.99424457 84.13110309 176.3125 85.25 C176.52089015 86.89107242 176.68001725 88.53856293 176.8125 90.1875 C177.06464943 93.85557465 177.06464943 93.85557465 178.3125 97.25 C178.3125 98.91666667 178.3125 100.58333333 178.3125 102.25 C178.6425 102.58 178.9725 102.91 179.3125 103.25 C181.02305481 109.75010827 181.88029607 116.26042345 182.61499023 122.92797852 C182.73564117 126.38451415 182.73564117 126.38451415 184.3125 129.25 C184.55098885 131.39639961 184.78661974 133.54315534 185.0078125 135.69140625 C185.68666378 141.39201638 187.03391113 146.97933222 188.26171875 152.58203125 C190.16706222 161.35342881 191.74131366 169.99545045 192.81640625 178.91015625 C193.39912581 182.83318952 194.45028765 186.47829615 195.5859375 190.26953125 C196.69148249 194.80464324 197.17498711 199.39599204 197.66601562 204.03295898 C197.76275564 207.43383883 197.76275564 207.43383883 199.3125 210.25 C201.35081085 218.4510163 201.84606897 226.84196696 202.3125 235.25 C201.6525 235.25 200.9925 235.25 200.3125 235.25 C200.3125 235.91 200.3125 236.57 200.3125 237.25 C196.11329763 237.29953687 191.91425131 237.33578411 187.71484375 237.35986328 C186.28707922 237.36990427 184.85933517 237.38353981 183.43164062 237.40087891 C181.37625059 237.42521152 179.32113308 237.43650202 177.265625 237.4453125 C175.41179199 237.46102295 175.41179199 237.46102295 173.52050781 237.47705078 C170.49590629 237.26298081 168.84264349 236.84653159 166.3125 235.25 C166.3125 234.26 166.3125 233.27 166.3125 232.25 C165.6525 232.25 164.9925 232.25 164.3125 232.25 C164.17972656 231.32316406 164.04695312 230.39632812 163.91015625 229.44140625 C163.64525391 227.64509766 163.64525391 227.64509766 163.375 225.8125 C163.20097656 224.61753906 163.02695312 223.42257812 162.84765625 222.19140625 C162.62264787 219.37044324 162.62264787 219.37044324 161.3125 218.25 C161.1257196 216.92178382 160.98869172 215.58645776 160.875 214.25 C160.55190317 211.00877468 160.06560663 207.9186264 159.3125 204.75 C158.3841526 200.84406427 157.89866133 196.99752907 157.55859375 193 C157.48794605 191.22486301 157.48794605 191.22486301 156.3125 190.25 C156.07562987 188.11816887 155.84233677 185.98586774 155.62890625 183.8515625 C155.21116098 180.41676808 154.49887028 177.07103317 153.78515625 173.6875 C153.33292808 171.35534813 153.01548576 169.04737347 152.75 166.6875 C152.69112274 163.42456501 152.69112274 163.42456501 151.3125 162.25 C150.88402515 159.43556589 150.51353815 156.63892931 150.1875 153.8125 C150.08824219 153.02294922 149.98898437 152.23339844 149.88671875 151.41992188 C149.18973214 145.49553571 149.18973214 145.49553571 150.3125 143.25 C149.6525 143.25 148.9925 143.25 148.3125 143.25 C148.25191406 142.53972656 148.19132813 141.82945312 148.12890625 141.09765625 C148.04511719 140.17855469 147.96132813 139.25945312 147.875 138.3125 C147.79378906 137.39597656 147.71257812 136.47945312 147.62890625 135.53515625 C147.55205024 133.28840268 147.55205024 133.28840268 146.3125 132.25 C145.74191715 129.35569632 145.22625893 126.47246486 144.75 123.5625 C144.61142578 122.75876953 144.47285156 121.95503906 144.33007812 121.12695312 C143.6091828 116.78382511 143.14825359 112.67037087 143.3125 108.25 C139.5890645 110.73229033 139.62568831 112.06146627 138.3125 116.25 C137.12679023 118.83533988 135.80893623 121.35023051 134.5 123.875 C132.0746184 128.62524896 129.78483584 133.35136856 127.8125 138.3125 C125.66253784 143.66561524 123.01871446 148.63308931 120.25390625 153.68383789 C117.70617627 158.38451987 115.63930637 163.16464197 113.66796875 168.13671875 C111.74803521 172.54647965 109.44614222 176.72831776 107.078125 180.91210938 C104.81577134 184.98878194 103.43297058 188.76237169 102.3125 193.25 C101.6525 193.25 100.9925 193.25 100.3125 193.25 C100.18294922 194.51070313 100.18294922 194.51070313 100.05078125 195.796875 C99.19318871 199.80804859 97.51051841 202.97898848 95.5 206.5 C92.74689564 211.47291974 90.37737966 216.35505086 88.38671875 221.6875 C86.12773901 227.07619348 83.15669386 232.15282112 80.3125 237.25 C77.54973823 236.72731534 74.9864124 236.14130413 72.3125 235.25 C71.10531183 232.7886285 70.08644303 230.42935235 69.125 227.875 C68.85236328 227.18921875 68.57972656 226.5034375 68.29882812 225.796875 C67.14110045 222.81405784 66.3125 220.47557496 66.3125 217.25 C65.6525 217.25 64.9925 217.25 64.3125 217.25 C61.68561883 212.28691714 59.2851607 207.3939665 57.5 202.0625 C55.61245866 196.62329924 53.00171861 191.75946909 50.23730469 186.73217773 C47.93134428 182.50835156 46.0569994 178.2902082 44.375 173.77734375 C42.59510974 169.54356067 40.27402455 165.60366764 37.99609375 161.62109375 C36.67623561 158.97831515 35.75316301 156.6707469 34.87890625 153.8828125 C33.37607479 149.15955691 31.22335501 145.00396483 28.8125 140.6875 C21.3125 127.18502475 21.3125 127.18502475 21.3125 121.25 C20.6525 121.25 19.9925 121.25 19.3125 121.25 C18.9825 119.27 18.6525 117.29 18.3125 115.25 C17.6525 115.25 16.9925 115.25 16.3125 115.25 C15.6525 112.94 14.9925 110.63 14.3125 108.25 C13.3225 108.745 13.3225 108.745 12.3125 109.25 C11.95304827 111.1681422 11.95304827 111.1681422 11.875 113.5 C11.45292117 118.8488899 10.32624177 123.8748268 9.03125 129.07421875 C8.26610869 132.45497899 7.78780502 135.81724149 7.3125 139.25 C6.86573143 141.64801682 6.40666223 144.04376367 5.9375 146.4375 C4.70992192 152.81178471 3.68750071 159.20198266 2.75 165.625 C1.91953582 171.31044472 1.04396398 176.94931035 -0.15625 182.5703125 C-1.08169537 187.23836782 -1.81007174 191.94079095 -2.57763672 196.63696289 C-3.24890396 200.71373558 -3.96433811 204.76790713 -4.8125 208.8125 C-5.42933571 211.75626066 -5.85369898 214.63004953 -6.125 217.625 C-6.51687939 221.34453324 -7.15067528 224.96780352 -7.9375 228.625 C-8.14890625 229.62273437 -8.3603125 230.62046875 -8.578125 231.6484375 C-10.02632102 235.04455916 -11.38623436 235.66375508 -14.6875 237.25 C-17.76196289 237.63818359 -17.76196289 237.63818359 -21.16015625 237.6484375 C-22.38927734 237.65230469 -23.61839844 237.65617188 -24.88476562 237.66015625 C-26.16029297 237.64855469 -27.43582031 237.63695312 -28.75 237.625 C-30.02939453 237.63660156 -31.30878906 237.64820313 -32.62695312 237.66015625 C-33.85478516 237.65628906 -35.08261719 237.65242187 -36.34765625 237.6484375 C-37.46793213 237.64505371 -38.58820801 237.64166992 -39.74243164 237.63818359 C-42.98894938 237.21026656 -44.38568409 236.54526687 -46.6875 234.25 C-47.11328125 231.83984375 -47.11328125 231.83984375 -47 229.1875 C-46.97550781 228.30964844 -46.95101562 227.43179688 -46.92578125 226.52734375 C-46.6875 224.25 -46.6875 224.25 -45.6875 222.25 C-45.21796246 218.81283845 -44.81891515 215.37536977 -44.4375 211.92773438 C-43.78924717 206.35174717 -43.78924717 206.35174717 -42.6875 205.25 C-42.48145915 203.92218122 -42.3212041 202.58704105 -42.1875 201.25 C-41.79861111 197.36111111 -41.79861111 197.36111111 -40.6875 196.25 C-40.31235082 193.60343976 -39.9813029 190.96820275 -39.6875 188.3125 C-38.82046089 180.51592179 -38.82046089 180.51592179 -37.6875 178.25 C-37.37958131 175.91922657 -37.17854726 173.58758104 -36.96875 171.24609375 C-36.6875 169.25 -36.6875 169.25 -35.6875 168.25 C-35.31427755 165.94360186 -34.98858195 163.62941973 -34.6875 161.3125 C-33.79616575 154.4673315 -33.79616575 154.4673315 -32.6875 152.25 C-32.37958131 149.91922657 -32.17854726 147.58758104 -31.96875 145.24609375 C-31.6875 143.25 -31.6875 143.25 -30.6875 142.25 C-30.31275688 139.41600515 -29.98139149 136.59248179 -29.6875 133.75 C-28.82263514 125.38513514 -28.82263514 125.38513514 -27.6875 124.25 C-27.48145915 122.92218122 -27.3212041 121.58704105 -27.1875 120.25 C-26.79861111 116.36111111 -26.79861111 116.36111111 -25.6875 115.25 C-25.31313873 112.58267593 -24.98179591 109.92625345 -24.6875 107.25 C-23.82263514 99.38513514 -23.82263514 99.38513514 -22.6875 98.25 C-22.43005836 96.2548273 -22.17550166 94.25887323 -21.96875 92.2578125 C-21.6875 90.25 -21.6875 90.25 -20.6875 87.25 C-20.6875 86.21875 -20.6875 85.1875 -20.6875 84.125 C-20.6875 81.25 -20.6875 81.25 -19.6875 80.25 C-19.48145915 78.92218122 -19.3212041 77.58704105 -19.1875 76.25 C-18.79861111 72.36111111 -18.79861111 72.36111111 -17.6875 71.25 C-17.43000743 69.222246 -17.17542777 67.19371791 -16.96875 65.16015625 C-16.6875 63.25 -16.6875 63.25 -15.6875 61.25 C-15.72875 60.445625 -15.77 59.64125 -15.8125 58.8125 C-15.69942383 55.58982913 -15.22852578 53.42078573 -14.3125 50.375 C-12.67449269 44.78105052 -11.94557208 39.24654866 -11.33447266 33.46923828 C-10.77976758 28.34226758 -10.77976758 28.34226758 -9.6875 27.25 C-9.48145915 25.92218122 -9.3212041 24.58704105 -9.1875 23.25 C-8.79861111 19.36111111 -8.79861111 19.36111111 -7.6875 18.25 C-7.1864773 14.72917685 -6.78557548 11.20129855 -6.3828125 7.66796875 C-5.48377558 3.2485457 -4.81663846 0.44805939 0 0 Z " fill="#FCFCFC" transform="translate(563.6875,79.75)"/>
<path d="M0 0 C1.05405029 -0.00143509 1.05405029 -0.00143509 2.12939453 -0.00289917 C3.61556081 -0.00357988 5.10173006 -0.0017332 6.58789062 0.00244141 C8.86595319 0.00779125 11.14381859 0.00249278 13.421875 -0.00390625 C14.86458377 -0.00324545 16.30729242 -0.00196425 17.75 0 C19.06742188 0.00112793 20.38484375 0.00225586 21.7421875 0.00341797 C24.875 0.1328125 24.875 0.1328125 26.875 1.1328125 C28.30893653 1.31029384 29.7474964 1.45172397 31.1875 1.5703125 C34.79140707 1.94214418 37.54355919 2.67022873 40.875 4.1328125 C42.39262099 4.58132874 43.91397642 5.01727492 45.4375 5.4453125 C51.44746639 7.20388487 57.13869441 9.63919512 62.875 12.1328125 C62.875 12.7928125 62.875 13.4528125 62.875 14.1328125 C64.855 14.4628125 66.835 14.7928125 68.875 15.1328125 C68.875 15.7928125 68.875 16.4528125 68.875 17.1328125 C71.52728812 18.20806444 74.15868454 19.22737401 76.875 20.1328125 C78.20833333 21.46614583 79.54166667 22.79947917 80.875 24.1328125 C81.865 24.4628125 82.855 24.7928125 83.875 25.1328125 C84.55721455 26.45825791 85.22206306 27.79270222 85.875 29.1328125 C87.5749352 30.82189 87.5749352 30.82189 89.5625 32.3828125 C99.16359233 40.5480658 106.93054477 50.97899574 112.796875 62.10546875 C113.7446227 63.88764649 114.80217988 65.61050544 115.875 67.3203125 C121.02688972 76.33090505 123.7476116 87.03694036 125.875 97.1328125 C126.04636475 97.91470947 126.21772949 98.69660645 126.39428711 99.50219727 C127.84266248 106.62214619 128.14760466 113.44349985 128.0625 120.6953125 C128.0615332 122.31276367 128.0615332 122.31276367 128.06054688 123.96289062 C128.01598214 131.85084821 128.01598214 131.85084821 126.875 134.1328125 C126.76845431 135.48535079 126.69008517 136.84014619 126.625 138.1953125 C126.16845395 143.2541373 124.94173432 147.90916047 123.5 152.7578125 C123.29084961 153.46172119 123.08169922 154.16562988 122.86621094 154.89086914 C120.62770511 162.21727656 118.07776751 169.08874612 114.375 175.8203125 C113.7871875 176.89667969 113.199375 177.97304687 112.59375 179.08203125 C112.0265625 180.08878906 111.459375 181.09554687 110.875 182.1328125 C110.08609375 183.56560547 110.08609375 183.56560547 109.28125 185.02734375 C108.8171875 185.72214844 108.353125 186.41695312 107.875 187.1328125 C107.215 187.1328125 106.555 187.1328125 105.875 187.1328125 C105.875 187.7928125 105.875 188.4528125 105.875 189.1328125 C105.215 189.4628125 104.555 189.7928125 103.875 190.1328125 C103.483125 190.8340625 103.09125 191.5353125 102.6875 192.2578125 C100.26380319 196.1022971 97.15505114 199.01451731 93.875 202.1328125 C94.205 202.7928125 94.535 203.4528125 94.875 204.1328125 C96.12112061 204.12233887 97.36724121 204.11186523 98.65112305 204.10107422 C103.28227862 204.06482506 107.9134217 204.04189406 112.54467773 204.02294922 C114.54762889 204.01290287 116.55056542 203.99926341 118.5534668 203.98193359 C121.43542088 203.95762537 124.31718072 203.94631563 127.19921875 203.9375 C128.09211105 203.92717743 128.98500336 203.91685486 129.904953 203.90621948 C138.04509477 203.90475645 138.04509477 203.90475645 141.875 206.1328125 C145.12250878 211.00407567 144.20285434 216.40871277 144.1875 222.1328125 C144.20361328 223.33421875 144.21972656 224.535625 144.23632812 225.7734375 C144.23697266 226.92328125 144.23761719 228.073125 144.23828125 229.2578125 C144.24275269 230.83949219 144.24275269 230.83949219 144.24731445 232.453125 C143.875 235.1328125 143.875 235.1328125 142.53979492 236.9375 C139.23579918 239.30974859 136.20546553 239.25833672 132.2819519 239.25979614 C130.53620377 239.26402588 130.53620377 239.26402588 128.75518799 239.26834106 C126.83812042 239.26530472 126.83812042 239.26530472 124.88232422 239.26220703 C123.52391513 239.26356191 122.16550641 239.26534234 120.80709839 239.26751709 C117.11723478 239.27208019 113.4273991 239.27030669 109.737535 239.267138 C105.88094093 239.26460966 102.02434929 239.26695318 98.16775513 239.26852417 C91.69304982 239.27034403 85.21835592 239.26794389 78.74365234 239.26318359 C71.24834909 239.25773673 63.75307302 239.25950744 56.25777042 239.26501 C49.82971967 239.26954086 43.40167713 239.27019195 36.9736253 239.26757133 C33.13110287 239.266009 29.28859324 239.26581369 25.44607162 239.26910782 C21.83624364 239.2719863 18.2264509 239.27001129 14.61662674 239.26421356 C12.65233662 239.26225045 10.68804354 239.26523975 8.72375488 239.26834106 C6.98646622 239.26411133 6.98646622 239.26411133 5.21408081 239.25979614 C4.2012396 239.25941912 3.1883984 239.25904209 2.14486504 239.25865364 C-0.125 239.1328125 -0.125 239.1328125 -1.125 238.1328125 C-2.9577461 238.08641386 -4.79205624 238.09501985 -6.625 238.1328125 C-8.45794376 238.17060515 -10.2922539 238.17921114 -12.125 238.1328125 C-12.455 237.8028125 -12.785 237.4728125 -13.125 237.1328125 C-14.7028125 236.91625 -14.7028125 236.91625 -16.3125 236.6953125 C-22.55232336 235.77468282 -28.30972359 233.35001294 -34.1875 231.1328125 C-34.88166016 230.87242187 -35.57582031 230.61203125 -36.29101562 230.34375 C-46.02262931 226.68399784 -46.02262931 226.68399784 -49.125 225.1328125 C-49.455 224.1428125 -49.785 223.1528125 -50.125 222.1328125 C-50.95 221.8646875 -51.775 221.5965625 -52.625 221.3203125 C-57.29305009 219.73650979 -61.30673084 217.25530817 -65.125 214.1328125 C-65.125 213.4728125 -65.125 212.8128125 -65.125 212.1328125 C-65.6715625 211.87886719 -66.218125 211.62492188 -66.78125 211.36328125 C-74.47250581 207.32537195 -80.24967918 202.88345413 -84.125 195.1328125 C-85.30160066 193.7305624 -86.51240661 192.35653673 -87.75 191.0078125 C-90.30516293 188.19549185 -92.07639107 185.86119981 -93.125 182.1328125 C-93.785 182.1328125 -94.445 182.1328125 -95.125 182.1328125 C-99.85855574 173.28611852 -103.83590095 164.91220965 -106.32421875 155.15625 C-106.97459054 152.70069991 -107.72656243 150.566849 -108.75 148.2578125 C-113.33524887 136.38126626 -113.13276951 120.68335376 -112.125 108.1328125 C-111.63 107.1428125 -111.63 107.1428125 -111.125 106.1328125 C-110.81708131 103.80203907 -110.61604726 101.47039354 -110.40625 99.12890625 C-110.125 97.1328125 -110.125 97.1328125 -109.125 96.1328125 C-108.84672885 94.57509898 -108.60358056 93.01108936 -108.375 91.4453125 C-106.62162763 81.53102312 -103.46886291 72.33633364 -97.5390625 64.15625 C-95.71380092 61.5444116 -94.37649666 58.79359396 -92.99609375 55.9296875 C-91.84499735 53.55522855 -90.62056719 51.30818296 -89.125 49.1328125 C-88.465 49.1328125 -87.805 49.1328125 -87.125 49.1328125 C-87.125 48.4728125 -87.125 47.8128125 -87.125 47.1328125 C-86.465 47.1328125 -85.805 47.1328125 -85.125 47.1328125 C-84.99907471 46.27671387 -84.99907471 46.27671387 -84.87060547 45.40332031 C-83.90000708 42.44766706 -82.38591758 41.00544995 -80.1953125 38.8046875 C-79.00228516 37.60585937 -79.00228516 37.60585937 -77.78515625 36.3828125 C-76.94855469 35.5578125 -76.11195313 34.7328125 -75.25 33.8828125 C-74.42113281 33.04234375 -73.59226562 32.201875 -72.73828125 31.3359375 C-71.94035156 30.541875 -71.14242187 29.7478125 -70.3203125 28.9296875 C-69.58828613 28.20104492 -68.85625977 27.47240234 -68.10205078 26.72167969 C-66.125 25.1328125 -66.125 25.1328125 -63.125 25.1328125 C-63.125 24.4728125 -63.125 23.8128125 -63.125 23.1328125 C-62.465 23.1328125 -61.805 23.1328125 -61.125 23.1328125 C-61.125 22.4728125 -61.125 21.8128125 -61.125 21.1328125 C-60.60550781 20.87886719 -60.08601562 20.62492187 -59.55078125 20.36328125 C-56.55876607 18.88663051 -53.60580311 17.42382491 -50.75 15.6953125 C-42.29169229 10.66060553 -33.45977486 7.17676082 -24.125 4.1328125 C-23.196875 3.7821875 -22.26875 3.4315625 -21.3125 3.0703125 C-17.8731671 2.058744 -14.63920343 1.67566279 -11.078125 1.37890625 C-0.13534426 0.00011588 -0.13534426 0.00011588 0 0 Z M-50.4375 57.6328125 C-51.2428418 58.34244141 -51.2428418 58.34244141 -52.06445312 59.06640625 C-55.79240335 62.44527973 -55.79240335 62.44527973 -57.125 67.1328125 C-58.445 66.8028125 -59.765 66.4728125 -61.125 66.1328125 C-61.393125 67.1846875 -61.66125 68.2365625 -61.9375 69.3203125 C-63.01944972 72.79394056 -64.23934202 75.07375476 -66.125 78.1328125 C-71.46740569 87.96896047 -74.91255194 97.01870528 -76.125 108.1328125 C-76.62 108.6278125 -76.62 108.6278125 -77.125 109.1328125 C-77.37998212 112.43729506 -77.3102477 115.75718339 -77.3125 119.0703125 C-77.32474609 119.98361328 -77.33699219 120.89691406 -77.34960938 121.83789062 C-77.36759495 130.30909736 -76.06659731 138.17319626 -73.125 146.1328125 C-72.88652344 146.7928125 -72.64804687 147.4528125 -72.40234375 148.1328125 C-65.05124795 168.22827035 -52.16958184 182.17717353 -34.125 193.1328125 C-33.42890625 193.58785156 -32.7328125 194.04289063 -32.015625 194.51171875 C-22.47640683 200.40902611 -10.36238868 203.50952011 0.7734375 203.9921875 C2.875 204.1328125 2.875 204.1328125 5.875 205.1328125 C8.5678496 205.31093874 11.16941368 205.22008948 13.875 205.1328125 C14.205 204.8028125 14.535 204.4728125 14.875 204.1328125 C16.49677135 203.9712338 18.12307576 203.85459836 19.75 203.7578125 C33.05096016 202.637913 43.86979953 197.48755997 55.17578125 190.71875 C57.37754554 189.42509399 59.57430392 188.23670943 61.875 187.1328125 C61.875 186.4728125 61.875 185.8128125 61.875 185.1328125 C62.8340625 184.730625 62.8340625 184.730625 63.8125 184.3203125 C66.20631686 183.24613498 66.20631686 183.24613498 66.875 180.1328125 C67.865 179.8028125 68.855 179.4728125 69.875 179.1328125 C69.875 178.4728125 69.875 177.8128125 69.875 177.1328125 C70.535 177.1328125 71.195 177.1328125 71.875 177.1328125 C74.60330215 174.87899768 76.11869842 172.17256524 77.875 169.1328125 C78.66561401 167.90296849 79.45738404 166.67386724 80.25 165.4453125 C85.53394126 156.93052764 88.71014233 148.91846973 90.875 139.1328125 C91.22691406 137.905625 91.57882812 136.6784375 91.94140625 135.4140625 C93.16658838 130.53301096 93.16855523 125.76666402 93.125 120.7578125 C93.13273438 119.87609375 93.14046875 118.994375 93.1484375 118.0859375 C93.10221618 102.32446773 87.96935027 86.56810701 79.875 73.1328125 C79.215 73.1328125 78.555 73.1328125 77.875 73.1328125 C77.66746094 72.28332031 77.45992187 71.43382812 77.24609375 70.55859375 C75.52930284 66.26906205 73.1007534 63.61897271 69.9375 60.3203125 C69.39931641 59.73572266 68.86113281 59.15113281 68.30664062 58.54882812 C65.88551267 55.97246138 64.2774232 54.26695357 60.875 53.1328125 C60.13378906 52.37097656 59.39257812 51.60914063 58.62890625 50.82421875 C55.62714735 47.89058487 52.50399638 45.97731655 48.8125 44.0703125 C48.15781738 43.72742188 47.50313477 43.38453125 46.82861328 43.03125 C39.5134229 39.29643793 32.18868397 36.01612922 23.875 36.1328125 C23.38 35.6378125 23.38 35.6378125 22.875 35.1328125 C18.63238968 34.84626698 14.37609701 34.90076856 10.125 34.8828125 C8.95066406 34.8621875 7.77632812 34.8415625 6.56640625 34.8203125 C-14.73485633 34.72657757 -34.77431102 43.31552643 -50.4375 57.6328125 Z " fill="#FCFCFC" transform="translate(881.125,77.8671875)"/>
<path d="M0 0 C3.57261977 0.85742875 3.89169737 1.30206122 5.8125 4.25 C8.81059248 9.71426533 11.72412782 15.35930329 11.125 21.75 C11.785 21.75 12.445 21.75 13.125 21.75 C13.37894531 22.46285156 13.63289063 23.17570312 13.89453125 23.91015625 C15.82016036 29.26874213 17.83708542 34.53355476 20.125 39.75 C21.80631792 43.74391135 23.46404338 47.74758701 25.125 51.75 C25.68097402 53.08073567 26.23696434 54.41146453 26.79296875 55.7421875 C29.72409333 62.78374675 32.56208616 69.83836303 35.1875 77 C37.37185713 82.95116285 39.89155515 88.65361478 42.61328125 94.3828125 C44.63352824 98.88269082 46.34847177 103.47326922 48.03320312 108.10742188 C50.12708232 113.86119075 52.51037154 119.43570276 55.0625 125 C56.97492952 129.27569793 58.55034513 133.63645928 60.12109375 138.046875 C61.31409705 141.25916404 62.66955583 144.37074832 64.09765625 147.484375 C66.89984908 153.66411584 69.42911784 159.94688586 71.9375 166.25 C72.64967504 168.03648406 73.36191514 169.82294219 74.07421875 171.609375 C74.42274902 172.48400391 74.7712793 173.35863281 75.13037109 174.25976562 C76.00560317 176.45106832 76.88572178 178.64027138 77.76953125 180.828125 C80.3585775 187.24950621 82.85573759 193.69179468 85.25 200.1875 C86.96739752 204.83803027 88.80666602 209.30983703 91.11328125 213.69921875 C94.80991811 221.19240157 97.95250828 228.30941551 97.125 236.75 C92.33472379 238.34675874 87.45389939 237.93451582 82.4375 237.9375 C81.37337891 237.94974609 80.30925781 237.96199219 79.21289062 237.97460938 C73.20358729 237.98574459 67.76819982 237.92931046 62.125 235.75 C60.03125 233.21875 60.03125 233.21875 58.625 230.25 C57.89796875 228.78046875 57.89796875 228.78046875 57.15625 227.28125 C56.125 224.75 56.125 224.75 56.125 222.75 C55.465 222.42 54.805 222.09 54.125 221.75 C53.67458029 221.24223211 53.22416058 220.73446423 52.76009178 220.21130943 C50.69677309 218.36728631 49.6986808 218.373255 46.96353149 218.36904907 C46.11680374 218.3605896 45.27007599 218.35213013 44.39768982 218.34341431 C43.47190628 218.349487 42.54612274 218.35555969 41.59228516 218.36181641 C40.61476791 218.35655945 39.63725067 218.35130249 38.63011169 218.34588623 C35.39126716 218.33265785 32.15291225 218.34143588 28.9140625 218.3515625 C26.66588242 218.34954226 24.41770298 218.34663124 22.16952515 218.34286499 C17.4534482 218.33843751 12.73754155 218.34488522 8.02148438 218.35888672 C1.97635617 218.37595905 -4.0683719 218.36615225 -10.11348534 218.34816933 C-14.75803641 218.33732626 -19.40249273 218.34078062 -24.04704666 218.3485527 C-26.27578402 218.35055427 -28.50452998 218.34809696 -30.73325729 218.34111404 C-33.85023507 218.33349336 -36.96656644 218.34511385 -40.08349609 218.36181641 C-41.46609871 218.35270737 -41.46609871 218.35270737 -42.87663269 218.34341431 C-47.68164675 218.39110253 -51.00447423 218.57153968 -54.875 221.75 C-56.60305533 224.29931842 -56.60305533 224.29931842 -57.9375 227.1875 C-59.83302801 231.04681603 -61.58702119 233.93631053 -64.875 236.75 C-70.01376986 238.46292329 -75.43361885 237.93460346 -80.8125 237.9375 C-82.00552734 237.94974609 -83.19855469 237.96199219 -84.42773438 237.97460938 C-86.14766602 237.97750977 -86.14766602 237.97750977 -87.90234375 237.98046875 C-88.95156006 237.98457764 -90.00077637 237.98868652 -91.08178711 237.99291992 C-93.8667317 237.75071908 -95.50632799 237.18513866 -97.875 235.75 C-98.50005965 228.40554912 -95.77414713 223.31090087 -92.375 216.9375 C-90.49929492 212.95162671 -89.23632863 208.85730143 -87.9375 204.65234375 C-86.87155233 201.74058228 -85.46925346 199.39872031 -83.875 196.75 C-83.22069081 194.93395816 -82.61857039 193.09848971 -82.0625 191.25 C-80.23489581 185.55011567 -77.88576377 180.25319106 -75.3203125 174.8515625 C-73.66874335 171.30738438 -72.22188665 167.71286569 -70.8046875 164.0703125 C-69.89563722 161.80150634 -68.90060396 159.5931667 -67.875 157.375 C-65.83586987 152.88091713 -64.35468112 148.25917993 -62.90234375 143.546875 C-61.85143276 140.68583976 -60.44428932 138.35272376 -58.875 135.75 C-58.5322455 134.41905739 -58.19957797 133.08549168 -57.875 131.75 C-56.7791597 129.12841282 -55.65893762 126.53074266 -54.5 123.9375 C-53.88777353 122.55609916 -53.27579243 121.17458955 -52.6640625 119.79296875 C-52.36483887 119.11782227 -52.06561523 118.44267578 -51.75732422 117.74707031 C-48.87808182 111.28383422 -48.87808182 111.28383422 -46.5 104.625 C-41.35366703 88.88961541 -41.35366703 88.88961541 -37.8125 83.1875 C-35.58374945 79.23326516 -34.37383262 75.30536913 -33.0078125 70.9921875 C-31.43696061 66.49630106 -29.36942212 62.28605038 -27.3203125 57.9921875 C-25.48945149 53.8851209 -24.16497007 49.68907187 -22.8125 45.40625 C-21.56497446 41.8715943 -19.80065579 38.95942631 -17.875 35.75 C-17.17793165 33.76039196 -16.51550623 31.75853086 -15.875 29.75 C-15.07156414 27.3927245 -14.25873401 25.03863412 -13.4375 22.6875 C-12.82068359 20.90666016 -12.82068359 20.90666016 -12.19140625 19.08984375 C-10.9946887 16.05366125 -9.5902394 13.51158322 -7.875 10.75 C-7.545 9.739375 -7.215 8.72875 -6.875 7.6875 C-5.40596653 3.37221419 -4.56408941 1.19063202 0 0 Z M0.125 79.75 C-3.25222302 81.43861151 -3.72326525 85.34063594 -4.875 88.75 C-5.96653011 92.15789872 -5.96653011 92.15789872 -7.03125 95.57421875 C-7.875 97.75 -7.875 97.75 -9.31640625 100.0703125 C-11.17368968 103.26353664 -12.19967098 106.41658194 -13.3125 109.9375 C-14.98789383 115.13406051 -16.77122558 120.2436688 -18.85913086 125.29003906 C-21.58345121 131.88707148 -24.1862795 138.53051286 -26.75 145.19140625 C-27.00345688 145.84955826 -27.25691376 146.50771027 -27.51805115 147.18580627 C-28.56875379 149.91525347 -29.61903401 152.64485537 -30.66601562 155.37573242 C-31.44189126 157.3984479 -32.22006976 159.42025087 -33 161.44140625 C-33.24832581 162.08526779 -33.49665161 162.72912933 -33.75250244 163.39250183 C-35.41385387 167.66262607 -37.20414863 171.84561841 -39.18652344 175.97607422 C-40.20310762 178.59540069 -40.15832245 180.98760616 -39.875 183.75 C-36.8699417 185.25252915 -33.78243067 184.87992759 -30.48779297 184.86352539 C-29.72672241 184.86367142 -28.96565186 184.86381744 -28.18151855 184.8639679 C-25.66004611 184.86326993 -23.13864708 184.85548294 -20.6171875 184.84765625 C-18.87126709 184.84579166 -17.12534616 184.84436795 -15.37942505 184.84336853 C-10.77954672 184.83954659 -6.17969986 184.82971905 -1.57983398 184.81866455 C3.1121376 184.80844349 7.80411425 184.80386942 12.49609375 184.79882812 C21.70574301 184.78809651 30.91536889 184.77102394 40.125 184.75 C41.44058501 180.51838089 40.44168161 178.70983582 38.4375 174.75 C35.84910451 169.41778574 33.8398862 164.15501216 32.0546875 158.51171875 C31.21366513 156.01338759 30.24487674 153.69549353 29.125 151.3125 C26.5018525 145.67065101 24.85757731 139.71264638 23.125 133.75 C22.465 133.75 21.805 133.75 21.125 133.75 C20.58963152 131.68366553 20.1012476 129.62735123 19.6953125 127.53125 C18.83001349 123.09849016 17.9728015 120.30975187 15.125 116.75 C14.44026605 114.42190457 13.77646849 112.08762223 13.125 109.75 C12.5448525 108.36469453 11.93869642 106.9901082 11.3125 105.625 C8.16750137 98.7578307 5.35829396 91.68995056 3.1015625 84.48046875 C2.30799906 81.64788116 2.30799906 81.64788116 0.125 79.75 Z " fill="#FCFCFC" transform="translate(1142.875,79.25)"/>
<path d="M0 0 C3.125 0.5 3.125 0.5 5.3125 3.125 C5.910625 4.23875 6.50875 5.3525 7.125 6.5 C7.640625 7.36625 8.15625 8.2325 8.6875 9.125 C10.33283574 12.98796216 11.28722482 16.78181297 12.24609375 20.86328125 C12.88447043 23.5047421 13.55838169 26.11372837 14.28515625 28.73046875 C16.94906738 38.37527259 19.04160729 47.98976154 20.74145508 57.85107422 C21.69245936 63.31582213 22.87527906 68.58109426 24.46875 73.8984375 C25.61476312 78.44156093 26.12104203 83.0820241 26.6953125 87.7265625 C26.83033449 90.40217115 26.83033449 90.40217115 28.125 91.5 C28.69412059 94.24829217 29.21002606 96.98567718 29.6875 99.75 C29.82607422 100.51441406 29.96464844 101.27882813 30.10742188 102.06640625 C30.23826172 102.81277344 30.36910156 103.55914062 30.50390625 104.328125 C30.6232251 105.0077832 30.74254395 105.68744141 30.86547852 106.38769531 C31.125 108.5 31.125 108.5 31.125 113.5 C9.675 113.83 -11.775 114.16 -33.875 114.5 C-33.19625944 107.71259435 -32.70435493 103.59784975 -30.875 97.5 C-30.07376833 93.81022542 -29.31031113 90.11422578 -28.55859375 86.4140625 C-27.875 83.5 -27.875 83.5 -26.875 82.5 C-26.50331518 80.339582 -26.17708609 78.17124378 -25.875 76 C-24.98611111 69.61111111 -24.98611111 69.61111111 -23.875 68.5 C-23.61755836 66.5048273 -23.36300166 64.50887323 -23.15625 62.5078125 C-22.875 60.5 -22.875 60.5 -21.875 57.5 C-21.57012246 56.16962528 -21.27993811 54.83584501 -21 53.5 C-19.03625933 44.53321356 -16.38972001 35.73578689 -13.83984375 26.921875 C-13.24001854 24.79455969 -12.66497367 22.65989467 -12.12890625 20.515625 C-7.31818182 1.27272727 -7.31818182 1.27272727 0 0 Z " fill="#FCFCFC" transform="translate(305.875,104.5)"/>
<path d="M0 0 C6.95883401 7.13280486 9.482115 15.19085044 12.0625 24.67578125 C12.79043448 27.25691559 13.57756872 29.69952255 14.5625 32.1875 C16.4549357 37.01015873 17.68770836 41.99454476 19 47 C19.33257812 48.22847656 19.66515625 49.45695312 20.0078125 50.72265625 C21.8295587 57.46118543 23.4840086 64.17803869 25 71 C6.19 71 -12.62 71 -32 71 C-31.08370742 62.75336677 -29.32987811 55.92558859 -26.71875 48.18359375 C-25.71946323 45.14771709 -24.86370454 42.07694741 -24 39 C-23.50638109 37.2481894 -23.00601191 35.49827113 -22.5 33.75 C-22.2628125 32.91984375 -22.025625 32.0896875 -21.78125 31.234375 C-21 29 -21 29 -19 26 C-18.54451115 24.51132911 -18.13218814 23.00915318 -17.75 21.5 C-16.031585 15.48995368 -13.09312082 10.39357558 -10 5 C-9.64808594 4.26136719 -9.29617187 3.52273437 -8.93359375 2.76171875 C-6.96925377 -0.94504832 -3.65514576 -1.77219189 0 0 Z " fill="#FCFCFC" transform="translate(159,147)"/>
<path d="M0 0 C6.2295758 -0.07589768 12.45903295 -0.12853504 18.68896484 -0.16479492 C20.80945288 -0.17990645 22.92990954 -0.2003964 25.05029297 -0.22631836 C28.09350311 -0.26259786 31.13630103 -0.27970242 34.1796875 -0.29296875 C35.13181122 -0.30845261 36.08393494 -0.32393646 37.06491089 -0.33988953 C38.38605392 -0.34022942 38.38605392 -0.34022942 39.73388672 -0.34057617 C40.51110077 -0.34723801 41.28831482 -0.35389984 42.08908081 -0.36076355 C42.71968414 -0.24171158 43.35028748 -0.12265961 44 0 C44.66 0.99 45.32 1.98 46 3 C45.31226703 4.58178583 44.61219471 6.15907232 43.859375 7.7109375 C42.76777718 10.61855715 42.41018406 13.42361954 42 16.5 C41.31071556 21.51297776 40.06765297 25.36845736 38 30 C37.17002149 33.25828195 36.44490323 36.52765883 35.74609375 39.81640625 C35.00844532 42.9639637 34.06006776 45.94766481 33 49 C32.7421875 49.80824219 32.484375 50.61648438 32.21875 51.44921875 C31.9815625 52.18785156 31.744375 52.92648437 31.5 53.6875 C31.2628125 54.43386719 31.025625 55.18023437 30.78125 55.94921875 C30 58 30 58 28 61 C21.6396306 60.51074082 21.6396306 60.51074082 18.92578125 58.34375 C16.6663639 55.59395201 15.63857329 53.09556387 14.4375 49.75 C14.0146875 48.58984375 13.591875 47.4296875 13.15625 46.234375 C12.7746875 45.16703125 12.393125 44.0996875 12 43 C11.48164007 41.66570314 10.96126484 40.33218449 10.4375 39 C8.73424721 34.45154085 7.36612974 29.79688018 5.96484375 25.1484375 C5.33238903 23.08463788 4.67179169 21.02920762 3.98046875 18.984375 C2.98968575 15.96860523 2.15406545 12.95191507 1.375 9.875 C0.98441406 8.35519531 0.98441406 8.35519531 0.5859375 6.8046875 C0 4 0 4 0 0 Z " fill="#FCFCFC" transform="translate(206,235)"/>
<path d="M0 0 C0.98033203 -0.00128906 1.96066406 -0.00257813 2.97070312 -0.00390625 C4.51854492 0.00189453 4.51854492 0.00189453 6.09765625 0.0078125 C7.12568359 0.00394531 8.15371094 0.00007812 9.21289062 -0.00390625 C10.68532227 -0.00197266 10.68532227 -0.00197266 12.1875 0 C13.54476196 0.00169189 13.54476196 0.00169189 14.92944336 0.00341797 C17.16015625 0.1328125 17.16015625 0.1328125 19.16015625 1.1328125 C18.50924661 4.13701085 17.84301959 7.13580119 17.16015625 10.1328125 C16.93070312 11.14214844 16.70125 12.15148437 16.46484375 13.19140625 C13.87309873 24.11765763 13.87309873 24.11765763 11.16015625 28.1328125 C9.28515625 29.1953125 9.28515625 29.1953125 7.16015625 29.1328125 C3.4759505 27.42549764 1.30842094 25.54861287 -0.83984375 22.1328125 C-1.46484375 19.43359375 -1.46484375 19.43359375 -1.83984375 16.4453125 C-2.6233359 11.03390483 -3.95970073 6.26047528 -5.83984375 1.1328125 C-4.19094609 -0.51608516 -2.26638991 0.00282869 0 0 Z " fill="#FAFAFA" transform="translate(362.83984375,234.8671875)"/>
<path d="M0 0 C3.45831586 -0.02894547 6.91660072 -0.04678 10.375 -0.0625 C11.35984375 -0.07087891 12.3446875 -0.07925781 13.359375 -0.08789062 C14.77089844 -0.09272461 14.77089844 -0.09272461 16.2109375 -0.09765625 C17.51490479 -0.10551147 17.51490479 -0.10551147 18.84521484 -0.11352539 C21 0 21 0 23 1 C21.64875466 9.78309473 20.00685491 18.98629017 16 27 C15.34 27 14.68 27 14 27 C14 27.66 14 28.32 14 29 C12.68 29 11.36 29 10 29 C10 28.34 10 27.68 10 27 C9.401875 26.773125 8.80375 26.54625 8.1875 26.3125 C3.07872749 23.2472365 2.10709667 17.50460179 0.55078125 12.109375 C-0.1685807 8.04829621 -0.10740844 4.11220903 0 0 Z " fill="#FBFBFB" transform="translate(82,235)"/>
<path d="M0 0 C45.21 0 90.42 0 137 0 C137 0.33 137 0.66 137 1 C91.79 1 46.58 1 0 1 C0 0.67 0 0.34 0 0 Z " fill="#000100" transform="translate(882,318)"/>
<path d="M0 0 C33.33 0 66.66 0 101 0 C101 0.33 101 0.66 101 1 C67.67 1 34.34 1 0 1 C0 0.67 0 0.34 0 0 Z " fill="#000100" transform="translate(1093,298)"/>
<path d="M0 0 C21.12 0 42.24 0 64 0 C64 0.33 64 0.66 64 1 C42.88 1 21.76 1 0 1 C0 0.67 0 0.34 0 0 Z " fill="#000100" transform="translate(274,219)"/>
<path d="M0 0 C18.81 0 37.62 0 57 0 C57 0.33 57 0.66 57 1 C38.19 1 19.38 1 0 1 C0 0.67 0 0.34 0 0 Z " fill="#000100" transform="translate(127,219)"/>
<path d="M0 0 C18.48 0 36.96 0 56 0 C56 0.33 56 0.66 56 1 C37.52 1 19.04 1 0 1 C0 0.67 0 0.34 0 0 Z " fill="#000100" transform="translate(207,430)"/>
<path d="M0 0 C17.49 0 34.98 0 53 0 C53 0.33 53 0.66 53 1 C35.51 1 18.02 1 0 1 C0 0.67 0 0.34 0 0 Z " fill="#000100" transform="translate(202,219)"/>
<path d="M0 0 C15.51 0 31.02 0 47 0 C47 0.33 47 0.66 47 1 C31.49 1.33 15.98 1.66 0 2 C0 1.34 0 0.68 0 0 Z " fill="#000100" transform="translate(62,219)"/>
<path d="M0 0 C9.24 0 18.48 0 28 0 C28 0.33 28 0.66 28 1 C18.76 1 9.52 1 0 1 C0 0.67 0 0.34 0 0 Z " fill="#000100" transform="translate(735,318)"/>
<path d="M0 0 C8.91 0 17.82 0 27 0 C27 0.33 27 0.66 27 1 C18.09 1 9.18 1 0 1 C0 0.67 0 0.34 0 0 Z " fill="#000100" transform="translate(522,318)"/>
<path d="M0 0 C8.25 0 16.5 0 25 0 C25 0.33 25 0.66 25 1 C16.75 1 8.5 1 0 1 C0 0.67 0 0.34 0 0 Z " fill="#000100" transform="translate(1050,318)"/>
<path d="M0 0 C7.59 0 15.18 0 23 0 C23 0.33 23 0.66 23 1 C15.41 1 7.82 1 0 1 C0 0.67 0 0.34 0 0 Z " fill="#000100" transform="translate(1213,318)"/>
<path d="M0 0 C0.33 0 0.66 0 1 0 C1 4.29 1 8.58 1 13 C0.67 13 0.34 13 0 13 C0 8.71 0 4.42 0 0 Z " fill="#000100" transform="translate(450,187)"/>
<path d="M0 0 C0.33 0 0.66 0 1 0 C1 3.96 1 7.92 1 12 C0.67 12 0.34 12 0 12 C0 8.04 0 4.08 0 0 Z " fill="#000100" transform="translate(450,229)"/>
<path d="M0 0 C3.63 0 7.26 0 11 0 C11 0.33 11 0.66 11 1 C7.37 1 3.74 1 0 1 C0 0.67 0 0.34 0 0 Z " fill="#000100" transform="translate(151,130)"/>
<path d="M0 0 C3.3 0 6.6 0 10 0 C10 0.33 10 0.66 10 1 C6.7 1 3.4 1 0 1 C0 0.67 0 0.34 0 0 Z " fill="#000100" transform="translate(870,316)"/>
<path d="M0 0 C0.33 0 0.66 0 1 0 C1 2.64 1 5.28 1 8 C0.67 8 0.34 8 0 8 C0 5.36 0 2.72 0 0 Z " fill="#000100" transform="translate(559,285)"/>
<path d="M0 0 C0.33 0 0.66 0 1 0 C1 2.64 1 5.28 1 8 C0.67 8 0.34 8 0 8 C0 5.36 0 2.72 0 0 Z " fill="#000100" transform="translate(564,257)"/>
<path d="M0 0 C0.33 0 0.66 0 1 0 C1 2.64 1 5.28 1 8 C0.67 8 0.34 8 0 8 C0 5.36 0 2.72 0 0 Z " fill="#000100" transform="translate(757,254)"/>
<path d="M0 0 C0.33 0 0.66 0 1 0 C1 2.64 1 5.28 1 8 C0.67 8 0.34 8 0 8 C0 5.36 0 2.72 0 0 Z " fill="#000100" transform="translate(729,103)"/>
<path d="M0 0 C0.33 0 0.66 0 1 0 C1 2.31 1 4.62 1 7 C0.67 7 0.34 7 0 7 C0 4.69 0 2.38 0 0 Z " fill="#000100" transform="translate(762,282)"/>
<path d="M0 0 C0.33 0 0.66 0 1 0 C1 2.31 1 4.62 1 7 C0.67 7 0.34 7 0 7 C0 4.69 0 2.38 0 0 Z " fill="#000100" transform="translate(249,245)"/>
<path d="M0 0 C0.33 0 0.66 0 1 0 C1 2.31 1 4.62 1 7 C0.67 7 0.34 7 0 7 C0 4.69 0 2.38 0 0 Z " fill="#000100" transform="translate(747,201)"/>
<path d="M0 0 C0.33 0 0.66 0 1 0 C1 2.31 1 4.62 1 7 C0.67 7 0.34 7 0 7 C0 4.69 0 2.38 0 0 Z " fill="#000100" transform="translate(333,188)"/>
<path d="M0 0 C0.33 0 0.66 0 1 0 C1 2.31 1 4.62 1 7 C0.67 7 0.34 7 0 7 C0 4.69 0 2.38 0 0 Z " fill="#000100" transform="translate(267,164)"/>
<path d="M0 0 C0.33 0 0.66 0 1 0 C1 2.31 1 4.62 1 7 C0.67 7 0.34 7 0 7 C0 4.69 0 2.38 0 0 Z " fill="#000100" transform="translate(328,163)"/>
<path d="M0 0 C0.33 0 0.66 0 1 0 C1 1.98 1 3.96 1 6 C0.67 6 0.34 6 0 6 C0 4.02 0 2.04 0 0 Z " fill="#000100" transform="translate(447,255)"/>
<path d="M0 0 C0.33 0 0.66 0 1 0 C1 1.98 1 3.96 1 6 C0.67 6 0.34 6 0 6 C0 4.02 0 2.04 0 0 Z " fill="#000100" transform="translate(569,229)"/>
<path d="M0 0 C0.33 0 0.66 0 1 0 C1 1.98 1 3.96 1 6 C0.67 6 0.34 6 0 6 C0 4.02 0 2.04 0 0 Z " fill="#000100" transform="translate(752,228)"/>
<path d="M0 0 C0.33 0 0.66 0 1 0 C1 1.98 1 3.96 1 6 C0.67 6 0.34 6 0 6 C0 4.02 0 2.04 0 0 Z " fill="#000100" transform="translate(338,213)"/>
<path d="M0 0 C0.33 0 0.66 0 1 0 C1 1.98 1 3.96 1 6 C0.67 6 0.34 6 0 6 C0 4.02 0 2.04 0 0 Z " fill="#000100" transform="translate(574,201)"/>
<path d="M0 0 C0.33 0 0.66 0 1 0 C1 1.98 1 3.96 1 6 C0.67 6 0.34 6 0 6 C0 4.02 0 2.04 0 0 Z " fill="#000100" transform="translate(447,167)"/>
<path d="M0 0 C0.33 0 0.66 0 1 0 C1 1.98 1 3.96 1 6 C0.67 6 0.34 6 0 6 C0 4.02 0 2.04 0 0 Z " fill="#000100" transform="translate(734,131)"/>
<path d="M0 0 C1.65 0 3.3 0 5 0 C5 0.33 5 0.66 5 1 C3.35 1 1.7 1 0 1 C0 0.67 0 0.34 0 0 Z " fill="#000100" transform="translate(283,425)"/>
<path d="M0 0 C1.65 0 3.3 0 5 0 C5 0.33 5 0.66 5 1 C3.35 1 1.7 1 0 1 C0 0.67 0 0.34 0 0 Z " fill="#000100" transform="translate(180,425)"/>
<path d="M0 0 C1.65 0 3.3 0 5 0 C5 0.33 5 0.66 5 1 C3.35 1 1.7 1 0 1 C0 0.67 0 0.34 0 0 Z " fill="#000100" transform="translate(855,313)"/>
<path d="M0 0 C0.33 0 0.66 0 1 0 C1 1.65 1 3.3 1 5 C0.67 5 0.34 5 0 5 C0 3.35 0 1.7 0 0 Z " fill="#000100" transform="translate(767,309)"/>
<path d="M0 0 C0.33 0 0.66 0 1 0 C1 1.65 1 3.3 1 5 C0.67 5 0.34 5 0 5 C0 3.35 0 1.7 0 0 Z " fill="#000100" transform="translate(244,265)"/>
<path d="M0 0 C0.33 0 0.66 0 1 0 C1 1.65 1 3.3 1 5 C0.67 5 0.34 5 0 5 C0 3.35 0 1.7 0 0 Z " fill="#000100" transform="translate(381,240)"/>
<path d="M0 0 C0.33 0 0.66 0 1 0 C1 1.65 1 3.3 1 5 C0.67 5 0.34 5 0 5 C0 3.35 0 1.7 0 0 Z " fill="#000100" transform="translate(1006,224)"/>
<path d="M0 0 C0.33 0 0.66 0 1 0 C1 1.65 1 3.3 1 5 C0.67 5 0.34 5 0 5 C0 3.35 0 1.7 0 0 Z " fill="#000100" transform="translate(183,210)"/>
<path d="M0 0 C0.33 0 0.66 0 1 0 C1 1.65 1 3.3 1 5 C0.67 5 0.34 5 0 5 C0 3.35 0 1.7 0 0 Z " fill="#000100" transform="translate(112,207)"/>
<path d="M0 0 C0.33 0 0.66 0 1 0 C1 1.65 1 3.3 1 5 C0.67 5 0.34 5 0 5 C0 3.35 0 1.7 0 0 Z " fill="#000100" transform="translate(742,177)"/>
<path d="M0 0 C0.33 0 0.66 0 1 0 C1 1.65 1 3.3 1 5 C0.67 5 0.34 5 0 5 C0 3.35 0 1.7 0 0 Z " fill="#000100" transform="translate(808,173)"/>
<path d="M0 0 C0.33 0 0.66 0 1 0 C1 1.65 1 3.3 1 5 C0.67 5 0.34 5 0 5 C0 3.35 0 1.7 0 0 Z " fill="#000100" transform="translate(1006,168)"/>
<path d="M0 0 C0.33 0 0.66 0 1 0 C1 1.65 1 3.3 1 5 C0.67 5 0.34 5 0 5 C0 3.35 0 1.7 0 0 Z " fill="#000100" transform="translate(272,145)"/>
<path d="M0 0 C0.33 0 0.66 0 1 0 C1 1.65 1 3.3 1 5 C0.67 5 0.34 5 0 5 C0 3.35 0 1.7 0 0 Z " fill="#000100" transform="translate(320,129)"/>
<path d="M0 0 C4 1 4 1 4 1 Z " fill="#000100" transform="translate(150,415)"/>
<path d="M0 0 C0.66 0 1.32 0 2 0 C2 0.66 2 1.32 2 2 C1.34 2 0.68 2 0 2 C0 1.34 0 0.68 0 0 Z " fill="#DADAD9" transform="translate(358,389)"/>
<path d="M0 0 C1 4 1 4 1 4 Z " fill="#000100" transform="translate(442,276)"/>
<path d="M0 0 C1 4 1 4 1 4 Z " fill="#000100" transform="translate(668,266)"/>
<path d="M0 0 C4 1 4 1 4 1 Z " fill="#000100" transform="translate(92,265)"/>
<path d="M0 0 C1 4 1 4 1 4 Z " fill="#000100" transform="translate(376,258)"/>
<path d="M0 0 C1 4 1 4 1 4 Z " fill="#000100" transform="translate(343,239)"/>
<path d="M0 0 C1 4 1 4 1 4 Z " fill="#000100" transform="translate(257,209)"/>
<path d="M0 0 C1 4 1 4 1 4 Z " fill="#000100" transform="translate(262,186)"/>
<path d="M0 0 C1 4 1 4 1 4 Z " fill="#000100" transform="translate(1133,182)"/>
<path d="M0 0 C1 4 1 4 1 4 Z " fill="#000100" transform="translate(1138,169)"/>
<path d="M0 0 C0.66 0 1.32 0 2 0 C2 0.66 2 1.32 2 2 C1.34 2 0.68 2 0 2 C0 1.34 0 0.68 0 0 Z " fill="#DADAD9" transform="translate(820,145)"/>
<path d="M0 0 C1 4 1 4 1 4 Z " fill="#000100" transform="translate(277,127)"/>
<path d="M0 0 C0.66 0 1.32 0 2 0 C2 0.66 2 1.32 2 2 C1.34 2 0.68 2 0 2 C0 1.34 0 0.68 0 0 Z " fill="#DADAD9" transform="translate(292,89)"/>
<path d="M0 0 C3 1 3 1 3 1 Z " fill="#000100" transform="translate(164,420)"/>
<path d="M0 0 C3 1 3 1 3 1 Z " fill="#000100" transform="translate(641,318)"/>
<path d="M0 0 C3 1 3 1 3 1 Z " fill="#000100" transform="translate(842,308)"/>
<path d="" fill="#000100" transform="translate(0,0)"/>
<path d="" fill="#000100" transform="translate(0,0)"/>
<path d="M0 0 C3 1 3 1 3 1 Z " fill="#000100" transform="translate(370,265)"/>
<path d="" fill="#000100" transform="translate(0,0)"/>
<path d="" fill="#000100" transform="translate(0,0)"/>
<path d="" fill="#000100" transform="translate(0,0)"/>
<path d="" fill="#000100" transform="translate(0,0)"/>
<path d="" fill="#000100" transform="translate(0,0)"/>
<path d="" fill="#000100" transform="translate(0,0)"/>
<path d="" fill="#000100" transform="translate(0,0)"/>
<path d="" fill="#000100" transform="translate(0,0)"/>
<path d="" fill="#000100" transform="translate(0,0)"/>
<path d="" fill="#000100" transform="translate(0,0)"/>
<path d="" fill="#000100" transform="translate(0,0)"/>
<path d="" fill="#000100" transform="translate(0,0)"/>
<path d="" fill="#000100" transform="translate(0,0)"/>
<path d="" fill="#000100" transform="translate(0,0)"/>
<path d="M0 0 C2 1 2 1 2 1 Z " fill="#000100" transform="translate(140,410)"/>
<path d="M0 0 C2 1 2 1 2 1 Z " fill="#000100" transform="translate(109,392)"/>
<path d="M0 0 C2 1 2 1 2 1 Z " fill="#000100" transform="translate(102,387)"/>
<path d="" fill="#000100" transform="translate(0,0)"/>
<path d="" fill="#000100" transform="translate(0,0)"/>
<path d="" fill="#393938" transform="translate(0,0)"/>
<path d="M0 0 C2 1 2 1 2 1 Z " fill="#000100" transform="translate(823,298)"/>
<path d="" fill="#393938" transform="translate(0,0)"/>
<path d="" fill="#000100" transform="translate(0,0)"/>
<path d="" fill="#7E7F7E" transform="translate(0,0)"/>
<path d="" fill="#000100" transform="translate(0,0)"/>
<path d="" fill="#393938" transform="translate(0,0)"/>
<path d="" fill="#000100" transform="translate(0,0)"/>
<path d="" fill="#000100" transform="translate(0,0)"/>
<path d="" fill="#000100" transform="translate(0,0)"/>
<path d="" fill="#393938" transform="translate(0,0)"/>
<path d="" fill="#000100" transform="translate(0,0)"/>
<path d="" fill="#000100" transform="translate(0,0)"/>
<path d="" fill="#393938" transform="translate(0,0)"/>
<path d="" fill="#000100" transform="translate(0,0)"/>
<path d="M0 0 C2 1 2 1 2 1 Z " fill="#000100" transform="translate(922,120)"/>
<path d="" fill="#000100" transform="translate(0,0)"/>
<path d="" fill="#FDFDFD" transform="translate(0,0)"/>
<path d="" fill="#000100" transform="translate(0,0)"/>
<path d="" fill="#000100" transform="translate(0,0)"/>
<path d="" fill="#000100" transform="translate(0,0)"/>
<path d="M0 0 C2 1 2 1 2 1 Z " fill="#FDFDFD" transform="translate(104,37)"/>
<path d="" fill="#727170" transform="translate(0,0)"/>
<path d="" fill="#727170" transform="translate(0,0)"/>
<path d="" fill="#000100" transform="translate(0,0)"/>
<path d="" fill="#727170" transform="translate(0,0)"/>
<path d="" fill="#000100" transform="translate(0,0)"/>
<path d="" fill="#727170" transform="translate(0,0)"/>
<path d="" fill="#000100" transform="translate(0,0)"/>
<path d="" fill="#727170" transform="translate(0,0)"/>
<path d="" fill="#000100" transform="translate(0,0)"/>
<path d="" fill="#727170" transform="translate(0,0)"/>
<path d="" fill="#000100" transform="translate(0,0)"/>
<path d="" fill="#000100" transform="translate(0,0)"/>
<path d="" fill="#000100" transform="translate(0,0)"/>
<path d="" fill="#000100" transform="translate(0,0)"/>
<path d="" fill="#727170" transform="translate(0,0)"/>
<path d="" fill="#000100" transform="translate(0,0)"/>
<path d="" fill="#000100" transform="translate(0,0)"/>
<path d="" fill="#727170" transform="translate(0,0)"/>
<path d="" fill="#727170" transform="translate(0,0)"/>
<path d="" fill="#000100" transform="translate(0,0)"/>
<path d="" fill="#727170" transform="translate(0,0)"/>
<path d="" fill="#000100" transform="translate(0,0)"/>
<path d="" fill="#727170" transform="translate(0,0)"/>
<path d="" fill="#FDFDFD" transform="translate(0,0)"/>
<path d="" fill="#000100" transform="translate(0,0)"/>
<path d="" fill="#000100" transform="translate(0,0)"/>
<path d="" fill="#727170" transform="translate(0,0)"/>
<path d="" fill="#000100" transform="translate(0,0)"/>
<path d="" fill="#FDFDFD" transform="translate(0,0)"/>
<path d="" fill="#000100" transform="translate(0,0)"/>
<path d="" fill="#727170" transform="translate(0,0)"/>
<path d="" fill="#727170" transform="translate(0,0)"/>
<path d="" fill="#000100" transform="translate(0,0)"/>
<path d="" fill="#727170" transform="translate(0,0)"/>
<path d="" fill="#727170" transform="translate(0,0)"/>
<path d="" fill="#727170" transform="translate(0,0)"/>
<path d="" fill="#727170" transform="translate(0,0)"/>
<path d="" fill="#000100" transform="translate(0,0)"/>
<path d="" fill="#000100" transform="translate(0,0)"/>
<path d="" fill="#000100" transform="translate(0,0)"/>
<path d="" fill="#727170" transform="translate(0,0)"/>
<path d="" fill="#000100" transform="translate(0,0)"/>
<path d="" fill="#FDFDFD" transform="translate(0,0)"/>
<path d="" fill="#FDFDFD" transform="translate(0,0)"/>
<path d="" fill="#000100" transform="translate(0,0)"/>
<path d="" fill="#000100" transform="translate(0,0)"/>
<path d="" fill="#000100" transform="translate(0,0)"/>
<path d="" fill="#000100" transform="translate(0,0)"/>
<path d="" fill="#000100" transform="translate(0,0)"/>
<path d="" fill="#727170" transform="translate(0,0)"/>
<path d="" fill="#000100" transform="translate(0,0)"/>
<path d="" fill="#000100" transform="translate(0,0)"/>
<path d="" fill="#727170" transform="translate(0,0)"/>
<path d="" fill="#FDFDFD" transform="translate(0,0)"/>
<path d="" fill="#727170" transform="translate(0,0)"/>
<path d="" fill="#727170" transform="translate(0,0)"/>
<path d="" fill="#727170" transform="translate(0,0)"/>
<path d="" fill="#000100" transform="translate(0,0)"/>
<path d="" fill="#727170" transform="translate(0,0)"/>
<path d="" fill="#000100" transform="translate(0,0)"/>
<path d="" fill="#727170" transform="translate(0,0)"/>
<path d="" fill="#000100" transform="translate(0,0)"/>
<path d="" fill="#727170" transform="translate(0,0)"/>
<path d="" fill="#000100" transform="translate(0,0)"/>
<path d="" fill="#000100" transform="translate(0,0)"/>
<path d="" fill="#000100" transform="translate(0,0)"/>
<path d="" fill="#000100" transform="translate(0,0)"/>
<path d="" fill="#000100" transform="translate(0,0)"/>
<path d="" fill="#727170" transform="translate(0,0)"/>
<path d="" fill="#000100" transform="translate(0,0)"/>
<path d="" fill="#000100" transform="translate(0,0)"/>
<path d="" fill="#000100" transform="translate(0,0)"/>
<path d="" fill="#000100" transform="translate(0,0)"/>
<path d="" fill="#FDFDFD" transform="translate(0,0)"/>
<path d="" fill="#000100" transform="translate(0,0)"/>
<path d="" fill="#727170" transform="translate(0,0)"/>
<path d="" fill="#000100" transform="translate(0,0)"/>
<path d="" fill="#727170" transform="translate(0,0)"/>
<path d="" fill="#000100" transform="translate(0,0)"/>
<path d="" fill="#000100" transform="translate(0,0)"/>
<path d="" fill="#000100" transform="translate(0,0)"/>
<path d="" fill="#727170" transform="translate(0,0)"/>
<path d="" fill="#727170" transform="translate(0,0)"/>
<path d="" fill="#727170" transform="translate(0,0)"/>
<path d="" fill="#727170" transform="translate(0,0)"/>
<path d="" fill="#000100" transform="translate(0,0)"/>
<path d="" fill="#727170" transform="translate(0,0)"/>
<path d="" fill="#000100" transform="translate(0,0)"/>
<path d="" fill="#000100" transform="translate(0,0)"/>
<path d="" fill="#727170" transform="translate(0,0)"/>
<path d="" fill="#000100" transform="translate(0,0)"/>
<path d="" fill="#727170" transform="translate(0,0)"/>
<path d="" fill="#000100" transform="translate(0,0)"/>
<path d="" fill="#000100" transform="translate(0,0)"/>
<path d="" fill="#000100" transform="translate(0,0)"/>
<path d="" fill="#727170" transform="translate(0,0)"/>
<path d="" fill="#000100" transform="translate(0,0)"/>
<path d="" fill="#727170" transform="translate(0,0)"/>
<path d="" fill="#000100" transform="translate(0,0)"/>
<path d="" fill="#727170" transform="translate(0,0)"/>
<path d="" fill="#000100" transform="translate(0,0)"/>
<path d="" fill="#727170" transform="translate(0,0)"/>
<path d="" fill="#000100" transform="translate(0,0)"/>
<path d="" fill="#000100" transform="translate(0,0)"/>
<path d="" fill="#000100" transform="translate(0,0)"/>
<path d="" fill="#000100" transform="translate(0,0)"/>
<path d="" fill="#000100" transform="translate(0,0)"/>
<path d="" fill="#727170" transform="translate(0,0)"/>
<path d="" fill="#000100" transform="translate(0,0)"/>
<path d="" fill="#000100" transform="translate(0,0)"/>
<path d="" fill="#000100" transform="translate(0,0)"/>
<path d="" fill="#727170" transform="translate(0,0)"/>
<path d="" fill="#000100" transform="translate(0,0)"/>
<path d="" fill="#000100" transform="translate(0,0)"/>
<path d="" fill="#727170" transform="translate(0,0)"/>
<path d="" fill="#000100" transform="translate(0,0)"/>
<path d="" fill="#000100" transform="translate(0,0)"/>
<path d="" fill="#727170" transform="translate(0,0)"/>
<path d="" fill="#727170" transform="translate(0,0)"/>
<path d="" fill="#727170" transform="translate(0,0)"/>
<path d="" fill="#727170" transform="translate(0,0)"/>
<path d="" fill="#000100" transform="translate(0,0)"/>
<path d="" fill="#000100" transform="translate(0,0)"/>
<path d="" fill="#727170" transform="translate(0,0)"/>
<path d="" fill="#727170" transform="translate(0,0)"/>
<path d="" fill="#000100" transform="translate(0,0)"/>
<path d="" fill="#000100" transform="translate(0,0)"/>
<path d="" fill="#000100" transform="translate(0,0)"/>
<path d="" fill="#FDFDFD" transform="translate(0,0)"/>
<path d="" fill="#000100" transform="translate(0,0)"/>
<path d="" fill="#727170" transform="translate(0,0)"/>
<path d="" fill="#727170" transform="translate(0,0)"/>
<path d="" fill="#000100" transform="translate(0,0)"/>
<path d="" fill="#FDFDFD" transform="translate(0,0)"/>
<path d="" fill="#727170" transform="translate(0,0)"/>
<path d="" fill="#000100" transform="translate(0,0)"/>
<path d="" fill="#000100" transform="translate(0,0)"/>
<path d="" fill="#000100" transform="translate(0,0)"/>
<path d="" fill="#000100" transform="translate(0,0)"/>
<path d="" fill="#000100" transform="translate(0,0)"/>
<path d="" fill="#727170" transform="translate(0,0)"/>
<path d="" fill="#727170" transform="translate(0,0)"/>
<path d="" fill="#000100" transform="translate(0,0)"/>
<path d="" fill="#FDFDFD" transform="translate(0,0)"/>
<path d="" fill="#727170" transform="translate(0,0)"/>
<path d="" fill="#727170" transform="translate(0,0)"/>
<path d="" fill="#727170" transform="translate(0,0)"/>
<path d="" fill="#000100" transform="translate(0,0)"/>
<path d="" fill="#FDFDFD" transform="translate(0,0)"/>
<path d="" fill="#FDFDFD" transform="translate(0,0)"/>
<path d="" fill="#000100" transform="translate(0,0)"/>
<path d="" fill="#FDFDFD" transform="translate(0,0)"/>
<path d="" fill="#727170" transform="translate(0,0)"/>
<path d="" fill="#FDFDFD" transform="translate(0,0)"/>
<path d="" fill="#000100" transform="translate(0,0)"/>
<path d="" fill="#000100" transform="translate(0,0)"/>
<path d="" fill="#000100" transform="translate(0,0)"/>
<path d="" fill="#727170" transform="translate(0,0)"/>
<path d="" fill="#000100" transform="translate(0,0)"/>
<path d="" fill="#000100" transform="translate(0,0)"/>
<path d="" fill="#FDFDFD" transform="translate(0,0)"/>
<path d="" fill="#FDFDFD" transform="translate(0,0)"/>
<path d="" fill="#000100" transform="translate(0,0)"/>
<path d="" fill="#000100" transform="translate(0,0)"/>
<path d="" fill="#000100" transform="translate(0,0)"/>
<path d="" fill="#000100" transform="translate(0,0)"/>
<path d="" fill="#727170" transform="translate(0,0)"/>
<path d="" fill="#727170" transform="translate(0,0)"/>
<path d="" fill="#FDFDFD" transform="translate(0,0)"/>
<path d="" fill="#FDFDFD" transform="translate(0,0)"/>
</svg>
